<?xml version="1.0" encoding="UTF-8" standalone="no"?>
<svg xmlns="http://www.w3.org/2000/svg" fill="none" height="16" viewBox="0 0 16 16" width="16"><style>text[font-family="'DejaVuSans'"] {font-family: 'DejaVu Sans', Ariel, Helvetica, sans-serif; font-style: normal; font-weight: normal;}
</style>
<path d="M14.5 12.643V8.92871L11 10.7859V14.5001L14.5 12.643Z" fill="#FF9D9A" stroke="#902622" stroke-linecap="round" stroke-linejoin="round"/>
<path d="M7.5 12.643V8.92871L11 10.7859V14.5001L7.5 12.643Z" fill="#FF9D9A" stroke="#902622" stroke-linecap="round" stroke-linejoin="round"/>
<path d="M14.5 8.92849L11 7.07135L7.5 8.92849L11 10.7856L14.5 8.92849Z" fill="#FF9D9A" stroke="#902622" stroke-linecap="round" stroke-linejoin="round"/>
<path d="M7.5 12.643V8.92871L4 10.7859V14.5001L7.5 12.643Z" fill="#CBFFBE" stroke="#008013" stroke-linecap="round" stroke-linejoin="round"/>
<path d="M0.5 12.643V8.92871L4 10.7859V14.5001L0.5 12.643Z" fill="#CBFFBE" stroke="#008013" stroke-linecap="round" stroke-linejoin="round"/>
<path d="M7.5 8.92849L4 7.07135L0.5 8.92849L4 10.7856L7.5 8.92849Z" fill="#CBFFBE" stroke="#008013" stroke-linecap="round" stroke-linejoin="round"/>
<path d="M11 7.07134V3.35706L7.5 5.2142V8.92848L11 7.07134Z" fill="#83CAFF" stroke="#1656A7" stroke-linecap="round" stroke-linejoin="round"/>
<path d="M4 7.07134V3.35706L7.5 5.2142V8.92848L4 7.07134Z" fill="#83CAFF" stroke="#1656A7" stroke-linecap="round" stroke-linejoin="round"/>
<path d="M11 3.35714L7.5 1.5L4 3.35714L7.5 5.21429L11 3.35714Z" fill="#83CAFF" stroke="#1656A7" stroke-linecap="round" stroke-linejoin="round"/>
<defs><style>@import url("../../includes/shared/css/roboto.css");</style></defs></svg>
