<?xml version="1.0" encoding="UTF-8" standalone="no"?>
<svg xmlns="http://www.w3.org/2000/svg" fill="none" height="16" viewBox="0 0 16 16" width="16"><style>text[font-family="'DejaVuSans'"] {font-family: 'DejaVu Sans', Ariel, Helvetica, sans-serif; font-style: normal; font-weight: normal;}
</style>
<g id="mergeText">
<path d="M14 0.5H6C5.17157 0.5 4.5 1.17157 4.5 2V14C4.5 14.8284 5.17157 15.5 6 15.5H14C14.8284 15.5 15.5 14.8284 15.5 14V2C15.5 1.17157 14.8284 0.5 14 0.5Z" fill="white" id="Vector 276" stroke="#616161" stroke-linecap="round"/>
<rect fill="#FFF5BC" height="6" id="Rectangle 1410" width="5" x="10" y="5"/>
<path d="M8.5 12.5H13.5" id="Vector 282" stroke="#616161" stroke-linecap="square"/>
<path d="M8.5 3.5H13.5" id="Vector 283" stroke="#616161" stroke-linecap="square"/>
<path d="M11.5 6.5H13.5" id="Vector 278" stroke="#674C06" stroke-linecap="square"/>
<path d="M11.5 9.5H13.5" id="Vector 279" stroke="#674C06" stroke-linecap="square"/>
<path d="M0.5 6L0.5 10H2.5L2.5 13L8.5 8L2.5 3L2.5 6H0.5Z" fill="#FFEF91" id="Vector 266" stroke="#674C06"/>
</g>
<defs><style>@import url("../../includes/shared/css/roboto.css");</style></defs></svg>
