<?xml version="1.0" encoding="UTF-8" standalone="no"?>
<svg xmlns="http://www.w3.org/2000/svg" fill="none" height="16" viewBox="0 0 16 16" width="16"><style>text[font-family="'DejaVuSans'"] {font-family: 'DejaVu Sans', Ariel, Helvetica, sans-serif; font-style: normal; font-weight: normal;}
</style>
<path d="M0.5 7C0.5 6.72386 0.723858 6.5 1 6.5H12C12.2761 6.5 12.5 6.72386 12.5 7V14C12.5 14.2761 12.2761 14.5 12 14.5H1C0.723858 14.5 0.5 14.2761 0.5 14V7Z" fill="white" stroke="#616161"/>
<path d="M1 7L4.5 10.5M12 7L8.5 10.5M1 14L4.5 10.5M4.5 10.5L6.5 12.5L8.5 10.5M12 14L8.5 10.5" stroke="#616161" stroke-linecap="round" stroke-linejoin="round"/>
<path d="M5.5 4.5L5.5 8.5H9.5V11L15 6.5L9.5 2V4.5L5.5 4.5Z" fill="#CBFFBE" stroke="#008014"/>
<defs><style>@import url("../../includes/shared/css/roboto.css");</style></defs></svg>
