<?xml version="1.0" encoding="UTF-8" standalone="no"?>
<svg xmlns="http://www.w3.org/2000/svg" fill="none" height="16" viewBox="0 0 14 16" width="14"><style>text[font-family="'DejaVuSans'"] {font-family: 'DejaVu Sans', Ariel, Helvetica, sans-serif; font-style: normal; font-weight: normal;}
</style>
<path d="M6 7.5C4.61929 7.5 3.5 8.61929 3.5 10C3.5 11.3807 4.61929 12.5 6 12.5H6.83333C7.75381 12.5 8.5 11.7538 8.5 10.8333C8.5 10.6492 8.64924 10.5 8.83333 10.5H11.0833C11.3135 10.5 11.5 10.6865 11.5 10.9167C11.5 13.448 9.44797 15.5 6.91667 15.5H6C2.96243 15.5 0.5 13.0376 0.5 10C0.5 6.96243 2.96243 4.5 6 4.5H6.5V1.5L12.5 6L6.5 10.5V7.5H6Z" fill="#B4DEFF" stroke="#1656A7"/>
<defs><style>@import url("../../includes/shared/css/roboto.css");</style></defs></svg>
