<?xml version="1.0" encoding="UTF-8" standalone="no"?>
<svg xmlns="http://www.w3.org/2000/svg" fill="none" height="16" viewBox="0 0 16 16" width="16"><style>text[font-family="'DejaVuSans'"] {font-family: 'DejaVu Sans', Ariel, Helvetica, sans-serif; font-style: normal; font-weight: normal;}
</style>
<path d="M14.5 0.5H5.5C4.94772 0.5 4.5 0.947715 4.5 1.5V14.5C4.5 15.0523 4.94771 15.5 5.5 15.5H14.5C15.0523 15.5 15.5 15.0523 15.5 14.5V1.5C15.5 0.947715 15.0523 0.5 14.5 0.5Z" fill="white" stroke="#616161" stroke-linecap="round"/>
<path d="M5 1.5C5 1.22386 5.22386 1 5.5 1H14.5C14.7761 1 15 1.22386 15 1.5V8H5V1.5Z" fill="#B4DEFF"/>
<path d="M14 3L10.5 8L7 3L9 3L9 1L12 1L12 3L14 3Z" fill="#1656A8"/>
<path d="M0.5 12.5V3.5L7.5 8L0.5 12.5Z" fill="#CBFFBE" stroke="#008013" stroke-linejoin="round"/>
<defs><style>@import url("../../includes/shared/css/roboto.css");</style></defs></svg>
