<?xml version="1.0" encoding="UTF-8" standalone="no"?>
<svg xmlns="http://www.w3.org/2000/svg" fill="none" height="16" viewBox="0 0 16 16" width="16"><style>text[font-family="'DejaVuSans'"] {font-family: 'DejaVu Sans', Ariel, Helvetica, sans-serif; font-style: normal; font-weight: normal;}
</style>
<path d="M0.5 10.5V1.5C0.5 0.947715 0.947715 0.5 1.5 0.5H10.5C11.0523 0.5 11.5 0.947715 11.5 1.5V10.5C11.5 11.0523 11.0523 11.5 10.5 11.5H1.5C0.947715 11.5 0.5 11.0523 0.5 10.5Z" fill="white" stroke="#616161"/>
<path d="M2 2.5H5M2 6.5H5M4 4.5H7" stroke="#616162"/>
<path d="M5.5 6.5C5.5 5.94772 5.94772 5.5 6.5 5.5H14.5C15.0523 5.5 15.5 5.94772 15.5 6.5V14.5C15.5 15.0523 15.0523 15.5 14.5 15.5H6.5C5.94772 15.5 5.5 15.0523 5.5 14.5V6.5Z" fill="white" stroke="#616161"/>
<path d="M7 10.5C7 9.5 8.63333 8 10.5 8C12.3667 8 14 9.5 14 10.5C14 11.5 12.3667 13 10.5 13C8.63333 13 7 11.5 7 10.5Z" fill="#616162"/>
<path d="M12 10.5C12 11.3284 11.3284 12 10.5 12C9.67157 12 9 11.3284 9 10.5C9 9.67157 9.67157 9 10.5 9C11.3284 9 12 9.67157 12 10.5Z" fill="white"/>
<circle cx="10.5" cy="10.5" fill="#616162" r="0.5"/>
<defs><style>@import url("../../includes/shared/css/roboto.css");</style></defs></svg>
