<?xml version="1.0" encoding="UTF-8" standalone="no"?>
<svg xmlns="http://www.w3.org/2000/svg" fill="none" height="16" viewBox="0 0 16 16" width="16"><style>text[font-family="'DejaVuSans'"] {font-family: 'DejaVu Sans', Ariel, Helvetica, sans-serif; font-style: normal; font-weight: normal;}
</style>
<path d="M12.5 14.5L9.5 11.5L11.5 9.5L14.5 12.5C15.0523 13.0523 15.0523 13.9477 14.5 14.5C13.9477 15.0523 13.0523 15.0523 12.5 14.5Z" fill="#D9D9D9" stroke="#616161"/>
<path d="M10.7427 2.25736C13.0858 4.60051 13.0858 8.39949 10.7426 10.7426C8.39943 13.0858 4.60044 13.0858 2.25732 10.7426C-0.0858048 8.39949 -0.0857679 4.6005 2.2574 2.25736C4.60057 -0.0857864 8.39956 -0.0857865 10.7427 2.25736Z" fill="white" stroke="#616161"/>
<path d="M5 3.5H3.5V5M3.5 8L3.5 9.5H5M8 9.5H9.5V8M9.5 5L9.5 3.5L8 3.5" stroke="#616162"/>
<defs><style>@import url("../../includes/shared/css/roboto.css");</style></defs></svg>
