<?xml version="1.0" encoding="UTF-8"?>
<svg xmlns="http://www.w3.org/2000/svg" version="1.1" viewBox="0 0 370.7 114.4">
  <!-- Generator: Adobe Illustrator 29.0.1, SVG Export Plug-In . SVG Version: 2.1.0 Build 192)  -->
  <defs>
    <style>
      .st0, .st1, .st2 {
        fill: #e8941a;
      }

      .st1 {
        letter-spacing: 0em;
      }

      .st1, .st3, .st2 {
        font-size: 102px;
      }

      .st1, .st2 {
        font-family: FuturaStd-Bold, 'Futura Std';
        font-weight: 700;
      }

      .st4, .st3 {
        fill: #6d6e71;
      }

      .st3 {
        font-family: FuturaStd-Book, 'Futura Std';
        letter-spacing: 0em;
      }

      .st2 {
        letter-spacing: 0em;
      }

      .st5 {
        display: none;
      }

      .st6 {
        fill: #d78825;
      }
    </style>
  </defs>
  <g id="R2022b_Match" class="st5">
    <g id="Layer_1">
      <g id="Layer_11" data-name="Layer_1" class="st5">
        <g>
          <path class="st6" d="M70.4,84.5h-24.9l-18.8-29.5h-.2v29.5H6.5V7.7h29.9c15.2,0,26.7,7.2,26.7,23.6s-5.9,19.8-16.8,21.7l24.1,31.5ZM26.5,42.2h1.9c6.5,0,13.9-1.2,13.9-9.6s-7.3-9.6-13.9-9.6h-1.9v19.2Z"/>
          <path class="st4" d="M121.2,76.6v7.9h-49.8l36-42.5c3.1-3.7,5.2-7.8,5.2-12.8,0-8.6-6.9-14.9-15.3-14.9s-15.3,6.8-15.5,15.8h-8.6c.4-13.4,10.2-23.7,23.8-23.7s24.1,9.4,24.1,22.7-1.8,11.6-5.8,16.2l-26.6,31.3h32.5Z"/>
          <path class="st4" d="M182.8,46.2c0,19-10,39.6-27.5,39.6s-27.5-20.7-27.5-39.6,8-39.8,27.5-39.8,27.5,24,27.5,39.8ZM136.3,46.6c.2,10.8,4.8,31.3,19,31.3s18.7-20.5,19-31.3c.2-10.9-4.5-32.3-19-32.3s-19.2,21.4-19,32.3Z"/>
          <path class="st4" d="M234.5,76.6v7.9h-49.7l36-42.5c3.1-3.7,5.2-7.8,5.2-12.8,0-8.6-6.9-14.9-15.3-14.9s-15.3,6.8-15.5,15.8h-8.6c.3-13.5,10.2-23.7,23.7-23.7s24.2,9.4,24.2,22.7-1.8,11.6-5.8,16.2l-26.6,31.3s32.4,0,32.4,0Z"/>
          <path class="st4" d="M249.2,15.7l4.5-7.9h16.8v76.8h-8.5V15.7h-12.8Z"/>
          <path class="st6" d="M291.2,0h18.5v37.4c4-4.6,10.2-6.8,16.2-6.8,15.5,0,26.2,12.8,26.2,27.8s-10.8,27.9-26.4,27.9-12.4-2.3-15.8-7.5h-.2v5.8h-18.5V0h0ZM309.2,58.5c0,6.6,4.4,11.7,11.9,11.7s11.9-5.1,11.9-11.7-4.4-11.8-11.9-11.8c-7.6-.1-11.9,5.3-11.9,11.8Z"/>
        </g>
      </g>
      <g id="R2006b">
        <g>
          <path class="st0" d="M70.4,84.6h-24.9l-18.8-29.6h-.2v29.6H6.5V7.7h29.9c15.1,0,26.7,7.3,26.7,23.7s-5.9,19.8-16.8,21.7l24.1,31.5ZM26.5,42.2h1.9c6.5,0,13.9-1.2,13.9-9.6s-7.3-9.6-13.9-9.6h-1.9v19.2Z"/>
          <path class="st4" d="M121.1,76.6v7.9h-49.7l36-42.5c3.1-3.7,5.2-7.8,5.2-12.8,0-8.6-6.9-14.9-15.3-14.9s-15.3,6.8-15.5,15.8h-8.6c.3-13.4,10.2-23.7,23.8-23.7s24.1,9.4,24.1,22.7-1.8,11.6-5.8,16.2l-26.6,31.3h32.4Z"/>
          <path class="st4" d="M182.8,46.2c0,19-10,39.6-27.5,39.6s-27.5-20.7-27.5-39.6,8-39.8,27.5-39.8,27.5,24,27.5,39.8ZM136.3,46.6c.2,10.8,4.8,31.3,19,31.3s18.7-20.5,19-31.3c.2-10.9-4.5-32.3-19-32.3s-19.2,21.4-19,32.3Z"/>
          <path class="st4" d="M234.4,76.6v7.9h-49.7l36-42.5c3.1-3.7,5.2-7.8,5.2-12.8,0-8.6-6.9-14.9-15.3-14.9s-15.3,6.8-15.5,15.8h-8.6c.4-13.4,10.2-23.7,23.8-23.7s24.2,9.4,24.2,22.7-1.8,11.6-5.8,16.2l-26.6,31.3s32.3,0,32.3,0Z"/>
          <path class="st4" d="M294.7,76.6v7.9h-49.7l36-42.5c3.1-3.7,5.2-7.8,5.2-12.8,0-8.6-6.9-14.9-15.3-14.9s-15.3,6.8-15.5,15.8h-8.6c.3-13.4,10.2-23.7,23.7-23.7s24.2,9.4,24.2,22.7-1.8,11.6-5.8,16.2l-26.6,31.3s32.4,0,32.4,0Z"/>
        </g>
      </g>
    </g>
    <g id="Layer_2">
      <path class="st0" d="M304.1,0h18.5v37.4c4-4.6,10.2-6.8,16.2-6.8,15.5,0,26.2,12.8,26.2,27.8s-10.8,27.9-26.4,27.9-12.4-2.3-15.8-7.5h-.2v5.8h-18.5V0h0ZM322.1,58.5c0,6.6,4.4,11.7,11.9,11.7s11.9-5.1,11.9-11.7-4.4-11.8-11.9-11.8c-7.6,0-11.9,5.3-11.9,11.8Z"/>
    </g>
  </g>
  <g id="R2022a_Match" class="st5">
    <g id="Layer_21" data-name="Layer_2">
      <g id="R2006b1" data-name="R2006b">
        <g>
          <path class="st0" d="M70.4,84.6h-24.9l-18.8-29.6h-.2v29.6H6.5V7.7h29.9c15.1,0,26.7,7.3,26.7,23.7s-5.9,19.8-16.8,21.7l24.1,31.5ZM26.5,42.2h1.9c6.5,0,13.9-1.2,13.9-9.6s-7.3-9.6-13.9-9.6h-1.9v19.2Z"/>
          <path class="st4" d="M121.1,76.6v7.9h-49.7l36-42.5c3.1-3.7,5.2-7.8,5.2-12.8,0-8.6-6.9-14.9-15.3-14.9s-15.3,6.8-15.5,15.8h-8.6c.3-13.4,10.2-23.7,23.8-23.7s24.1,9.4,24.1,22.7-1.8,11.6-5.8,16.2l-26.6,31.3h32.4Z"/>
          <path class="st4" d="M182.8,46.2c0,19-10,39.6-27.5,39.6s-27.5-20.7-27.5-39.6,8-39.8,27.5-39.8,27.5,24,27.5,39.8ZM136.3,46.6c.2,10.8,4.8,31.3,19,31.3s18.7-20.5,19-31.3c.2-10.9-4.5-32.3-19-32.3s-19.2,21.4-19,32.3Z"/>
          <path class="st4" d="M234.4,76.6v7.9h-49.7l36-42.5c3.1-3.7,5.2-7.8,5.2-12.8,0-8.6-6.9-14.9-15.3-14.9s-15.3,6.8-15.5,15.8h-8.6c.4-13.4,10.2-23.7,23.8-23.7s24.2,9.4,24.2,22.7-1.8,11.6-5.8,16.2l-26.6,31.3s32.3,0,32.3,0Z"/>
          <path class="st4" d="M294.7,76.6v7.9h-49.7l36-42.5c3.1-3.7,5.2-7.8,5.2-12.8,0-8.6-6.9-14.9-15.3-14.9s-15.3,6.8-15.5,15.8h-8.6c.3-13.4,10.2-23.7,23.7-23.7s24.2,9.4,24.2,22.7-1.8,11.6-5.8,16.2l-26.6,31.3s32.4,0,32.4,0Z"/>
          <path class="st0" d="M364.3,84.6h-18.5v-5.8h-.3c-3.3,5.2-9.7,7.5-15.8,7.5-15.5,0-26.4-12.9-26.4-27.9s10.7-27.8,26.2-27.8,12.3,2.2,16.2,6.8v-5.1h18.5v52.3h0ZM322.5,58.5c0,6.6,4.4,11.7,11.9,11.7s11.9-5.1,11.9-11.7-4.4-11.8-11.9-11.8c-7.5,0-11.9,5.4-11.9,11.8Z"/>
        </g>
      </g>
    </g>
  </g>
  <g id="_x32_022_-_Live_Text" class="st5">
    <text class="st3" transform="translate(67.4 84.5)"><tspan x="0" y="0">2022</tspan></text>
  </g>
  <g id="_x32_023_-_Live_Text" class="st5">
    <text class="st3" transform="translate(67.4 84.5)"><tspan x="0" y="0">2023</tspan></text>
  </g>
  <g id="_x32_024_-_Live_Text" class="st5">
    <text class="st3" transform="translate(67.4 84.5)"><tspan x="0" y="0">2024</tspan></text>
  </g>
  <g id="_x32_025_-_Live_Text" class="st5">
    <text class="st3" transform="translate(67.4 84.5)"><tspan x="0" y="0">2025</tspan></text>
  </g>
  <g id="R_-_Live_Text" class="st5">
    <text class="st1" transform="translate(0 84.6)"><tspan x="0" y="0">R</tspan></text>
  </g>
  <g id="b_-_Live_Text" class="st5">
    <text class="st2" transform="translate(298.6 84.7)"><tspan x="0" y="0">b</tspan></text>
  </g>
  <g id="a_-_Live_Text" class="st5">
    <text class="st2" transform="translate(300.6 84.7)"><tspan x="0" y="0">a</tspan></text>
  </g>
  <g id="_x32_022_-_Outlines" class="st5">
    <g>
      <path class="st4" d="M121.3,76.5v8h-49.8l36-42.5c3.1-3.7,5.2-7.9,5.2-12.9,0-8.6-6.9-14.9-15.3-14.9s-15.3,6.8-15.5,15.8h-8.6c.3-13.5,10.2-23.8,23.8-23.8s24.2,9.4,24.2,22.7-1.8,11.6-5.8,16.2l-26.6,31.3h32.4Z"/>
      <path class="st4" d="M184,46.1c0,19-10,39.7-27.5,39.7s-27.5-20.7-27.5-39.7,8.1-39.9,27.5-39.9,27.5,24.1,27.5,39.9ZM137.5,46.6c.2,10.8,4.8,31.3,19,31.3s18.8-20.5,19-31.3c.2-10.9-4.5-32.3-19-32.3s-19.2,21.4-19,32.3Z"/>
      <path class="st4" d="M236.6,76.5v8h-49.8l36-42.5c3.1-3.7,5.2-7.9,5.2-12.9,0-8.6-6.9-14.9-15.3-14.9s-15.3,6.8-15.5,15.8h-8.6c.3-13.5,10.2-23.8,23.8-23.8s24.2,9.4,24.2,22.7-1.8,11.6-5.8,16.2l-26.6,31.3h32.4Z"/>
      <path class="st4" d="M294.2,76.5v8h-49.8l36-42.5c3.1-3.7,5.2-7.9,5.2-12.9,0-8.6-6.9-14.9-15.3-14.9s-15.3,6.8-15.5,15.8h-8.6c.3-13.5,10.2-23.8,23.8-23.8s24.2,9.4,24.2,22.7-1.8,11.6-5.8,16.2l-26.6,31.3h32.4Z"/>
    </g>
  </g>
  <g id="_x32_023_-_Outlines" class="st5">
    <g>
      <path class="st4" d="M121.3,76.5v8h-49.8l36-42.5c3.1-3.7,5.2-7.9,5.2-12.9,0-8.6-6.9-14.9-15.3-14.9s-15.3,6.8-15.5,15.8h-8.6c.3-13.5,10.2-23.8,23.8-23.8s24.2,9.4,24.2,22.7-1.8,11.6-5.8,16.2l-26.6,31.3h32.4Z"/>
      <path class="st4" d="M184,46.1c0,19-10,39.7-27.5,39.7s-27.5-20.7-27.5-39.7,8.1-39.9,27.5-39.9,27.5,24.1,27.5,39.9ZM137.5,46.6c.2,10.8,4.8,31.3,19,31.3s18.8-20.5,19-31.3c.2-10.9-4.5-32.3-19-32.3s-19.2,21.4-19,32.3Z"/>
      <path class="st4" d="M236.6,76.5v8h-49.8l36-42.5c3.1-3.7,5.2-7.9,5.2-12.9,0-8.6-6.9-14.9-15.3-14.9s-15.3,6.8-15.5,15.8h-8.6c.3-13.5,10.2-23.8,23.8-23.8s24.2,9.4,24.2,22.7-1.8,11.6-5.8,16.2l-26.6,31.3h32.4Z"/>
      <path class="st4" d="M267.9,40.1c8.2-.3,15.2-2.8,15.2-12.4s-5.4-13.5-13.5-13.5-11.9,5.1-12.6,12.3h-8.5c1.2-12.2,8.7-20.3,21.3-20.3s21.8,8.4,21.8,21-3.7,13.7-9.9,16.8c7.4,3.4,11,11,11,18.9,0,13.5-10.7,22.8-23.9,22.8s-22.6-8.5-22.8-21.3h8.4c.4,7.9,7,13.4,14.8,13.4s15-6.9,15-15.4-6.9-14.7-16.3-14.4v-8Z"/>
    </g>
  </g>
  <g id="_x32_024_-_Outlines" class="st5">
    <g>
      <path class="st4" d="M121.3,76.5v8h-49.8l36-42.5c3.1-3.7,5.2-7.9,5.2-12.9,0-8.6-6.9-14.9-15.3-14.9s-15.3,6.8-15.5,15.8h-8.6c.3-13.5,10.2-23.8,23.8-23.8s24.2,9.4,24.2,22.7-1.8,11.6-5.8,16.2l-26.6,31.3h32.4Z"/>
      <path class="st4" d="M184,46.1c0,19-10,39.7-27.5,39.7s-27.5-20.7-27.5-39.7,8.1-39.9,27.5-39.9,27.5,24.1,27.5,39.9ZM137.5,46.6c.2,10.8,4.8,31.3,19,31.3s18.8-20.5,19-31.3c.2-10.9-4.5-32.3-19-32.3s-19.2,21.4-19,32.3Z"/>
      <path class="st4" d="M236.6,76.5v8h-49.8l36-42.5c3.1-3.7,5.2-7.9,5.2-12.9,0-8.6-6.9-14.9-15.3-14.9s-15.3,6.8-15.5,15.8h-8.6c.3-13.5,10.2-23.8,23.8-23.8s24.2,9.4,24.2,22.7-1.8,11.6-5.8,16.2l-26.6,31.3h32.4Z"/>
      <path class="st4" d="M298.3,64.1v8h-9.5v12.4h-8.6v-12.4h-39.4L288.6,3.3h.2v60.8h9.5ZM280.3,29.3h-.2l-24.2,34.8h24.4V29.3Z"/>
    </g>
  </g>
  <g id="_x32_025_-_Outlines">
    <g>
      <path class="st4" d="M121.3,76.5v8h-49.8l36-42.5c3.1-3.7,5.2-7.9,5.2-12.9,0-8.6-6.9-14.9-15.3-14.9s-15.3,6.8-15.5,15.8h-8.6c.3-13.5,10.2-23.8,23.8-23.8s24.2,9.4,24.2,22.7-1.8,11.6-5.8,16.2l-26.6,31.3h32.4Z"/>
      <path class="st4" d="M184,46.1c0,19-10,39.7-27.5,39.7s-27.5-20.7-27.5-39.7,8.1-39.9,27.5-39.9,27.5,24.1,27.5,39.9ZM137.5,46.6c.2,10.8,4.8,31.3,19,31.3s18.8-20.5,19-31.3c.2-10.9-4.5-32.3-19-32.3s-19.2,21.4-19,32.3Z"/>
      <path class="st4" d="M236.6,76.5v8h-49.8l36-42.5c3.1-3.7,5.2-7.9,5.2-12.9,0-8.6-6.9-14.9-15.3-14.9s-15.3,6.8-15.5,15.8h-8.6c.3-13.5,10.2-23.8,23.8-23.8s24.2,9.4,24.2,22.7-1.8,11.6-5.8,16.2l-26.6,31.3h32.4Z"/>
      <path class="st4" d="M269,15.5l-5,16.4,4.6-.4c15.2,0,25.6,11.9,25.6,26.8s-12.5,27.4-28.3,27.4-18.5-5.1-23.6-13.8l6.8-4.9c3.5,6.2,9.7,10.7,17,10.7,11.3,0,19.4-8.5,19.4-19.7s-8.5-18.7-19.2-18.7-10.2,2-14.6,4.9l11.1-36.8h30.6v8h-24.6Z"/>
    </g>
  </g>
  <g id="R_-_Outlines">
    <path class="st0" d="M70.5,84.6h-24.9l-18.9-29.6h-.2v29.6H6.5V7.7h29.9c15.2,0,26.7,7.2,26.7,23.7s-5.9,19.8-16.8,21.7l24.2,31.5ZM26.5,42.2h1.9c6.5,0,13.9-1.2,13.9-9.6s-7.3-9.6-13.9-9.6h-1.9v19.2Z"/>
  </g>
  <g id="b_-_Outlines" class="st5">
    <path class="st0" d="M301.5,0h18.6v37.4c4-4.6,10.2-6.8,16.2-6.8,15.5,0,26.2,12.9,26.2,27.8s-10.8,27.9-26.4,27.9-12.4-2.3-15.8-7.5h-.2v5.8h-18.6V0ZM319.5,58.5c0,6.6,4.4,11.7,11.9,11.7s11.9-5.1,11.9-11.7-4.4-11.8-11.9-11.8-11.9,5.4-11.9,11.8Z"/>
  </g>
  <g id="a_-_Outlines__x28_8.7px_from_Left_Edge_of_Last_Number_x29_">
    <path class="st0" d="M362.5,84.7h-18.6v-5.8h-.2c-3.3,5.2-9.7,7.5-15.8,7.5-15.5,0-26.4-13-26.4-27.9s10.7-27.8,26.2-27.8,12.3,2.2,16.2,6.8v-5.1h18.6v52.3ZM320.7,58.5c0,6.6,4.4,11.7,11.9,11.7s11.9-5.1,11.9-11.7-4.4-11.8-11.9-11.8-11.9,5.4-11.9,11.8Z"/>
  </g>
</svg>