<?xml version="1.0" encoding="UTF-8" standalone="no"?>
<svg xmlns="http://www.w3.org/2000/svg" fill="none" height="16" viewBox="0 0 16 16" width="16"><style>text[font-family="'DejaVuSans'"] {font-family: 'DejaVu Sans', Ariel, Helvetica, sans-serif; font-style: normal; font-weight: normal;}
</style>
<path d="M14.5 0.5H1.5C0.947715 0.5 0.5 0.947715 0.5 1.5V14.5C0.5 15.0523 0.947715 15.5 1.5 15.5H14.5C15.0523 15.5 15.5 15.0523 15.5 14.5V1.5C15.5 0.947715 15.0523 0.5 14.5 0.5Z" fill="white" stroke="#616161" stroke-linecap="round"/>
<path d="M5 8V13H8.5C9.88071 13 11 11.8807 11 10.5C11 9.11929 9.88071 8 8.5 8H5ZM5 8H7.5C8.88071 8 10 6.88071 10 5.5C10 4.11929 8.88071 3 7.5 3H5V8Z" stroke="#616162" stroke-linejoin="round" stroke-width="2"/>
<defs><style>@import url("../../includes/shared/css/roboto.css");</style></defs></svg>
