<?xml version="1.0" encoding="UTF-8" standalone="no"?>
<svg xmlns="http://www.w3.org/2000/svg" fill="none" height="12" viewBox="0 0 12 12" width="12"><style>text[font-family="'DejaVuSans'"] {font-family: 'DejaVu Sans', Ariel, Helvetica, sans-serif; font-style: normal; font-weight: normal;}
</style>
<path clip-rule="evenodd" d="M4.5 3C3.67157 3 3 3.67157 3 4.5V9.5C3 10.3284 3.67157 11 4.5 11H9.5C10.3284 11 11 10.3284 11 9.5V4.5C11 3.67157 10.3284 3 9.5 3H4.5ZM6.14642 6.85359L8.29287 9.00004H6.99998V10H9.49998C9.77612 10 9.99998 9.77618 9.99998 9.50004V7.00004H8.99998V8.29293L6.85353 6.14648L6.14642 6.85359Z" fill="#616160" fill-rule="evenodd"/>
<path d="M2 7.5H1.5C0.947715 7.5 0.5 7.05228 0.5 6.5V1.5C0.5 0.947715 0.947715 0.5 1.5 0.5H6.5C7.05228 0.5 7.5 0.947715 7.5 1.5V2" stroke="#616160"/>
<defs><style>@import url("../../includes/shared/css/roboto.css");</style></defs></svg>
