<?xml version="1.0" encoding="UTF-8" standalone="no"?>
<svg xmlns="http://www.w3.org/2000/svg" fill="none" height="16" viewBox="0 0 16 16" width="16"><style>text[font-family="'DejaVuSans'"] {font-family: 'DejaVu Sans', Ariel, Helvetica, sans-serif; font-style: normal; font-weight: normal;}
</style>
<path d="M14.5 0.5H1.5C0.947715 0.5 0.5 0.947715 0.5 1.5V14.5C0.5 15.0523 0.947715 15.5 1.5 15.5H14.5C15.0523 15.5 15.5 15.0523 15.5 14.5V1.5C15.5 0.947715 15.0523 0.5 14.5 0.5Z" fill="white" stroke="#616161" stroke-linecap="round"/>
<path d="M5.5 12.5H10.5" stroke="#616162" stroke-linecap="square"/>
<path d="M9.5 10.5L10.5 10.5" stroke="#008013" stroke-linecap="square"/>
<path d="M5.5 10.5L7.5 10.5" stroke="#616162" stroke-linecap="square"/>
<path d="M2.5 10.5L3.5 10.5" stroke="#008013" stroke-linecap="square"/>
<path d="M7.5 8.5H10.5" stroke="#8B6606" stroke-linecap="square"/>
<path d="M4.5 8.5L5.5 8.5" stroke="#0E00FF" stroke-linecap="square"/>
<path d="M8.5 6.5H13.5" stroke="#A709F5" stroke-linecap="square"/>
<path d="M5.5 4.5H10.5" stroke="#616162" stroke-linecap="square"/>
<path d="M7.5 2.5L8.5 2.5" stroke="#008013" stroke-linecap="square"/>
<path d="M2.5 2.5L5.5 2.5" stroke="#B7312C" stroke-linecap="square"/>
<defs><style>@import url("../../includes/shared/css/roboto.css");</style></defs></svg>
