<?xml version="1.0" encoding="UTF-8" standalone="no"?>
<svg xmlns="http://www.w3.org/2000/svg" xmlns:xlink="http://www.w3.org/1999/xlink" viewBox="0 0 727.97 328.49"><style>text[font-family="'DejaVuSans'"] {font-family: 'DejaVu Sans', Ariel, Helvetica, sans-serif; font-style: normal; font-weight: normal;}
</style><defs><style>@import url("../../includes/shared/css/roboto.css");
.cls-1,.cls-2,.cls-3{fill:none;}.cls-4{font-family:Roboto-Regular, Roboto;}.cls-5{fill:url(#New_Gradient_Swatch_5);}.cls-5,.cls-6,.cls-7,.cls-8{opacity:.7;}.cls-2{stroke:gray;stroke-width:2px;}.cls-9{fill:url(#linear-gradient-8);}.cls-10{fill:url(#linear-gradient-7);}.cls-11{fill:url(#linear-gradient-5);}.cls-12{fill:url(#linear-gradient-6);}.cls-13{fill:url(#linear-gradient-9);}.cls-14{fill:url(#linear-gradient-4);}.cls-15{fill:url(#linear-gradient-3);}.cls-16{fill:url(#linear-gradient-2);}.cls-17{fill:#749dc2;}.cls-17,.cls-18{opacity:.4;}.cls-19{fill:url(#linear-gradient);}.cls-18,.cls-20{fill:#fff;}.cls-21{isolation:isolate;}.cls-22{fill:url(#New_Gradient_Swatch_13);}.cls-23{letter-spacing:0em;}.cls-3{stroke:url(#linear-gradient-12);stroke-width:3px;}.cls-24{fill:#6f6f6f;font-family:Roboto-Medium, Roboto;font-size:23.94px;font-weight:500;}.cls-25{fill:#0b3f6f;}.cls-26{fill:url(#linear-gradient-10);}.cls-27{fill:url(#linear-gradient-11);}.cls-28{mix-blend-mode:darken;}.cls-6{fill:url(#New_Gradient_Swatch_5-2);}.cls-7{fill:url(#New_Gradient_Swatch_5-4);}.cls-8{fill:url(#New_Gradient_Swatch_5-3);}.cls-29,.cls-30,.cls-31{font-family:Roboto-Bold, Roboto;font-weight:700;}.cls-32{fill:url(#New_Gradient_Swatch_13-3);}.cls-33{fill:url(#New_Gradient_Swatch_13-7);}.cls-34{fill:url(#New_Gradient_Swatch_13-4);}.cls-35{fill:url(#New_Gradient_Swatch_13-2);}.cls-36{fill:url(#New_Gradient_Swatch_13-5);}.cls-37{fill:url(#New_Gradient_Swatch_13-6);}.cls-38{fill:url(#New_Gradient_Swatch_13-8);}.cls-39{letter-spacing:-.01em;}.cls-40{fill:#474747;font-family:RobotoMono-Regular, 'Roboto Mono';stroke:#474747;}.cls-40,.cls-30,.cls-31,.cls-41{stroke-width:.25px;}.cls-40,.cls-31{font-size:14.01px;}.cls-30,.cls-31,.cls-41{stroke:#000;}.cls-30,.cls-41{font-size:16.34px;}</style><radialGradient cx="388.05" cy="131.82" fx="388.05" fy="131.82" gradientUnits="userSpaceOnUse" id="New_Gradient_Swatch_13" r="64.52"><stop offset=".21" stop-color="#fff"/><stop offset=".68" stop-color="#fcee8d"/><stop offset="1" stop-color="#e7cd85"/></radialGradient><linearGradient gradientUnits="userSpaceOnUse" id="linear-gradient" x1="409.14" x2="409.14" y1="127.26" y2="178.57"><stop offset=".19" stop-color="#749dc2"/><stop offset=".35" stop-color="#6c91b2"/><stop offset=".94" stop-color="#51687e"/></linearGradient><radialGradient cx="482.95" fx="482.95" id="New_Gradient_Swatch_13-2" r="64.52" xlink:href="#New_Gradient_Swatch_13"/><linearGradient id="linear-gradient-2" x1="504.04" x2="504.04" xlink:href="#linear-gradient" y1="127.26"/><linearGradient gradientUnits="userSpaceOnUse" id="New_Gradient_Swatch_5" x1="492.01" x2="503.85" y1="140.57" y2="165.39"><stop offset="0" stop-color="#2a5d93"/><stop offset=".26" stop-color="#114a87"/><stop offset=".71" stop-color="#0b3f6f"/><stop offset="1" stop-color="#093a6f"/></linearGradient><linearGradient id="New_Gradient_Swatch_5-2" x1="505.4" x2="517.25" xlink:href="#New_Gradient_Swatch_5" y1="139.42" y2="164.24"/><radialGradient cx="577.84" fx="577.84" id="New_Gradient_Swatch_13-3" r="64.52" xlink:href="#New_Gradient_Swatch_13"/><linearGradient id="linear-gradient-3" x1="598.94" x2="598.94" xlink:href="#linear-gradient"/><linearGradient id="New_Gradient_Swatch_5-3" x1="595.29" x2="610.55" xlink:href="#New_Gradient_Swatch_5" y1="142" y2="173.99"/><radialGradient cx="672.74" fx="672.74" id="New_Gradient_Swatch_13-4" r="64.52" xlink:href="#New_Gradient_Swatch_13"/><linearGradient id="linear-gradient-4" x1="693.84" x2="693.84" xlink:href="#linear-gradient" y1="127.26" y2="178.57"/><linearGradient gradientTransform="translate(678.06) rotate(-180) scale(1 -1)" gradientUnits="userSpaceOnUse" id="linear-gradient-5" x1="-28.4" x2="-16.14" y1="146.58" y2="167.43"><stop offset=".06" stop-color="#d4e0ff"/><stop offset=".83" stop-color="#9ab3eb"/></linearGradient><linearGradient gradientTransform="translate(678.06) rotate(-180) scale(1 -1)" gradientUnits="userSpaceOnUse" id="linear-gradient-6" x1="-11.26" x2="-4.66" y1="149.73" y2="163.54"><stop offset=".18" stop-color="#90a3cf"/><stop offset=".77" stop-color="#5b7eac"/></linearGradient><linearGradient gradientUnits="userSpaceOnUse" id="linear-gradient-7" x1="700.63" x2="684.74" y1="146.82" y2="140.33"><stop offset=".13" stop-color="#f9faff"/><stop offset=".88" stop-color="#cfdced"/></linearGradient><radialGradient cx="8.45" fx="8.45" id="New_Gradient_Swatch_13-5" r="64.52" xlink:href="#New_Gradient_Swatch_13"/><linearGradient id="linear-gradient-8" x1="29.54" x2="29.54" xlink:href="#linear-gradient"/><linearGradient id="New_Gradient_Swatch_5-4" x1="29.82" x2="37.71" xlink:href="#New_Gradient_Swatch_5" y1="145.56" y2="162.1"/><radialGradient cx="103.35" fx="103.35" id="New_Gradient_Swatch_13-6" r="64.52" xlink:href="#New_Gradient_Swatch_13"/><linearGradient id="linear-gradient-9" x1="124.44" x2="124.44" xlink:href="#linear-gradient"/><radialGradient cx="293.15" fx="293.15" id="New_Gradient_Swatch_13-7" r="64.52" xlink:href="#New_Gradient_Swatch_13"/><linearGradient id="linear-gradient-10" x1="314.24" x2="314.24" xlink:href="#linear-gradient" y1="127.26"/><radialGradient cx="198.25" fx="198.25" id="New_Gradient_Swatch_13-8" r="64.52" xlink:href="#New_Gradient_Swatch_13"/><linearGradient id="linear-gradient-11" x1="219.34" x2="219.34" xlink:href="#linear-gradient"/><linearGradient id="linear-gradient-12" x1="219.34" x2="219.34" xlink:href="#linear-gradient" y1="130.63" y2="175.2"/></defs><g class="cls-21"><g id="placed"><polyline class="cls-2" points="30.45 106.2 30.45 74.01 598.94 74.01 598.94 106.2"/><line class="cls-2" x1="124.44" x2="124.44" y1="106.2" y2="74.01"/><line class="cls-2" x1="219.34" x2="219.34" y1="106.2" y2="74.01"/><line class="cls-2" x1="314.24" x2="314.24" y1="106.2" y2="37.58"/><polyline class="cls-2" points="204.86 254 204.86 221.81 424.53 221.81 424.53 254"/><line class="cls-2" x1="314.24" x2="314.24" y1="254" y2="185.38"/><line class="cls-2" x1="409.14" x2="409.14" y1="106.2" y2="74.01"/><line class="cls-2" x1="504.04" x2="504.04" y1="106.2" y2="74.01"/><line class="cls-2" x1="694.17" x2="694.17" y1="92.44" y2="37.58"/></g><g id="text"><text class="cls-40" transform="translate(.13 121.35)"><tspan x="0" y="0">logical</tspan></text><text class="cls-40" transform="translate(99.23 121.35)"><tspan x="0" y="0">string</tspan></text><text class="cls-40" transform="translate(202.53 121.35)"><tspan x="0" y="0">char</tspan></text><text class="cls-31" transform="translate(288.49 121.35)"><tspan x="0" y="0">numeric</tspan></text><text class="cls-41" transform="translate(259.15 14.1)"><tspan class="cls-29"><tspan x="0" y="0">Matrix or Ar</tspan><tspan class="cls-39" x="87.49" y="0">r</tspan><tspan class="cls-23" x="93.21" y="0">ay</tspan></tspan><tspan class="cls-4"><tspan x="2.13" y="17.51">(full or sparse)</tspan></tspan></text><text class="cls-30" transform="translate(670.98 31.61)"><tspan x="0" y="0">Scalar</tspan></text><text class="cls-40" transform="translate(388.13 121.35)"><tspan x="0" y="0">table</tspan></text><text class="cls-40" transform="translate(151.96 272.05)"><tspan x="0" y="0">int8, uint8,</tspan><tspan x="0" y="17.51">int16,uint16,</tspan><tspan x="0" y="35.01">int32,uint32,</tspan><tspan x="0" y="52.52">int64,uint64</tspan></text><text class="cls-40" transform="translate(289.03 272.05)"><tspan x="0" y="0">single</tspan></text><text class="cls-40" transform="translate(400.59 272.05)"><tspan x="0" y="0">double</tspan></text><text class="cls-40" transform="translate(487.23 121.35)"><tspan x="0" y="0">cell</tspan></text><text class="cls-40" transform="translate(573.72 121.35)"><tspan x="0" y="0">struct</tspan></text><text class="cls-31" transform="translate(667.62 107.66)"><tspan x="0" y="0">function</tspan><tspan x="-8.01" y="14.01">handle (@)</tspan></text><path class="cls-22" d="M431.37,130.68h-44.47v44.47h44.47v-44.47Z"/><rect class="cls-17" height="44.47" width="10.26" x="386.91" y="130.68"/><rect class="cls-17" height="3.42" width="30.79" x="400.59" y="130.68"/><path class="cls-19" d="M417.69,127.26h-34.21v51.31h51.31v-51.31h-17.1ZM400.59,175.15v-10.26h13.68v10.26h-13.68ZM400.59,161.47v-10.29h13.68v10.29h-13.68ZM400.59,147.78v-10.26h13.68v10.26h-13.68ZM400.59,134.1v-3.42h13.68v3.42h-13.68ZM417.69,130.67h13.68v3.43h-13.68v-3.43ZM386.91,130.65h10.26v3.45h-10.26v-3.45ZM386.91,137.52h10.26v10.26h-10.26v-10.26ZM386.91,151.17h10.26v10.3h-10.26v-10.3ZM397.17,164.89v10.26h-10.26v-10.26h10.26ZM431.37,175.15h-13.68v-10.26h13.68v10.26ZM417.69,161.47v-10.27h13.68v10.27h-13.68ZM431.37,147.78h-13.68v-10.26h13.68v10.26Z"/><path class="cls-35" d="M526.27,130.68h-44.47v44.47h44.47v-44.47Z"/><g class="cls-28"><path class="cls-16" d="M478.39,127.26v51.31h51.31v-51.31h-51.31ZM481.81,130.65l44.47.03v44.47h-44.47v-44.5Z"/></g><path class="cls-5" d="M498.72,167.48c-3.93-1.1-5.93-3.61-6.01-7.53v-3.56c0-2.51-1.07-3.76-3.22-3.76v-2.97c2.15,0,3.22-1.26,3.22-3.77v-3.54c.03-2,.55-3.62,1.56-4.86,1.01-1.24,2.49-2.13,4.45-2.69l.8,2.34c-1.93.62-2.92,2.33-2.99,5.11v3.61c0,2.51-.96,4.27-2.89,5.28,1.93,1.02,2.89,2.8,2.89,5.33v3.56c.07,2.78,1.06,4.49,2.99,5.11l-.8,2.35Z"/><path class="cls-6" d="M508.51,165.13c1.96-.63,2.96-2.37,3.01-5.21v-3.47c0-2.57,1.01-4.34,3.04-5.3-2.03-.96-3.04-2.74-3.04-5.34v-3.46c-.04-2.84-1.05-4.58-3.01-5.21l.8-2.34c2.03.57,3.54,1.49,4.53,2.76.99,1.28,1.49,2.94,1.49,5v3.34c0,2.51,1.08,3.76,3.24,3.76v2.97c-2.16,0-3.24,1.25-3.24,3.76v3.29c0,2.08-.5,3.76-1.5,5.04s-2.5,2.2-4.52,2.76l-.8-2.35Z"/><rect class="cls-20" height="3.42" width="44.47" x="481.81" y="130.68"/><path class="cls-32" d="M621.17,130.68h-44.47v44.47h44.47v-44.47Z"/><g class="cls-28"><path class="cls-15" d="M573.29,127.26v51.31h51.31v-51.31h-51.31ZM576.71,130.65l44.47.03v44.47h-44.47v-44.5Z"/></g><polygon class="cls-8" points="614.33 140.91 614.33 137.52 597.23 137.52 597.23 151.2 580.13 151.2 580.13 154.62 597.23 154.59 597.23 171.73 614.33 171.73 614.33 168.31 600.65 168.31 600.65 161.47 614.33 161.43 614.33 158.05 600.65 158.05 600.65 151.2 614.33 151.17 614.33 147.78 600.65 147.78 600.65 140.94 614.33 140.91"/><rect class="cls-20" height="3.42" width="44.47" x="576.71" y="130.68"/><path class="cls-34" d="M716.07,130.68h-44.47v44.47h44.47v-44.47Z"/><g class="cls-28"><path class="cls-14" d="M668.18,127.26v51.31h51.31v-51.31h-51.31ZM671.61,130.65l44.47.03v44.47h-44.47v-44.5Z"/></g><polygon class="cls-11" points="708.4 160.53 694.17 167.08 694.17 150.24 708.62 143.3 708.4 160.53"/><polygon class="cls-12" points="693.93 167.47 679.2 161.66 679.2 143.53 693.93 150.4 693.93 167.47"/><polygon class="cls-10" points="678.88 144.62 692.72 138.62 708.57 143.37 695.16 150.16 678.88 144.62"/><polygon class="cls-1" points="679.51 161.05 693.83 166.62 693.83 150.57 679.51 145.91 679.51 161.05"/><polygon class="cls-1" points="695.12 151.03 695.12 166.62 707.94 160.37 707.94 144.65 695.16 151.05 695.12 151.03"/><polygon class="cls-1" points="679.51 144.42 679.51 145.22 679.73 144.62 695.12 149.64 707.66 143.36 707.94 143.94 707.94 143.22 692.6 138.89 679.51 144.42"/><path class="cls-25" d="M692.55,137.53l-14.1,6.49v17.87l16.03,6.41,14.68-7.69v-17.95l-16.61-5.13ZM693.83,166.62l-14.32-5.57v-15.15l14.32,5v15.71ZM707.94,159.97l-12.87,6.65v-15.59l12.87-6.38v15.32ZM694.47,149.64l-14.97-5.22,13.09-5.85,15.33,4.65-13.46,6.42Z"/><rect class="cls-20" height="3.42" width="44.47" x="671.61" y="130.68"/><path class="cls-36" d="M51.78,130.68H7.31v44.47h44.47v-44.47Z"/><path class="cls-9" d="M3.89,127.26v51.31h51.31v-51.31H3.89ZM7.31,130.65l44.47.03v44.47H7.31v-44.5Z"/><path class="cls-7" d="M14.15,151.2s-.71,2.57-1,2.85c3.35,3.59,10.83,9.55,12.26,13.68,0,0,15.82-23.37,22.23-27.22.43-1-.57-1.85-1.14-2.42-6.41,3.28-20.81,21.66-20.81,21.66,0,0-7.27-7.41-11.54-8.55Z"/><rect class="cls-20" height="3.42" width="44.47" x="7.31" y="130.68"/><path class="cls-37" d="M146.68,130.68h-44.47v44.47h44.47v-44.47Z"/><path class="cls-13" d="M98.79,127.26v51.31h51.31v-51.31h-51.31ZM102.21,130.65l44.47.03v44.47h-44.47v-44.5Z"/><text class="cls-24" transform="translate(104.11 159.91)"><tspan x="0" y="0">s t r</tspan></text><rect class="cls-20" height="3.42" width="44.47" x="102.21" y="130.68"/><path class="cls-33" d="M336.48,130.68h-44.47v44.47h44.47v-44.47Z"/><g class="cls-28"><rect class="cls-1" height="20.52" width="20.52" x="292.01" y="154.62"/><rect class="cls-1" height="20.56" width="20.52" x="315.95" y="130.65"/><rect class="cls-1" height="20.56" width="20.52" x="292.01" y="130.65"/><rect class="cls-1" height="20.52" width="20.52" x="315.95" y="154.62"/><path class="cls-26" d="M288.59,127.26v51.31h51.31v-51.31h-51.31ZM336.48,130.65v20.56h-20.52v-20.56h20.52ZM292.01,130.65h20.52v20.56h-20.52v-20.56ZM292.01,175.15v-20.52l20.52-.03v20.56h-20.52ZM336.48,175.15h-20.52v-20.56l20.52.03v20.52Z"/></g><rect class="cls-20" height="3.42" width="20.52" x="292.01" y="130.68"/><rect class="cls-20" height="3.42" width="20.52" x="315.95" y="130.68"/><rect class="cls-18" height="3.42" width="3.42" x="312.53" y="130.68"/><path class="cls-38" d="M241.58,130.68h-44.47v44.47h44.47v-44.47Z"/><path class="cls-27" d="M193.69,127.26v51.31h51.31v-51.31h-51.31ZM197.11,130.65l44.47.03v44.47h-44.47v-44.5Z"/><text class="cls-24" transform="translate(200.8 159.91)"><tspan x="0" y="0">c</tspan></text><text class="cls-24" transform="translate(224.27 159.91)"><tspan x="0" y="0">h</tspan></text><rect class="cls-20" height="3.42" width="44.47" x="197.11" y="130.68"/><line class="cls-3" x1="219.34" x2="219.34" y1="130.63" y2="175.2"/></g></g></svg>
