<?xml version="1.0" encoding="UTF-8" standalone="no"?>
<svg xmlns="http://www.w3.org/2000/svg" fill="none" height="16" viewBox="0 0 16 16" width="16"><style>text[font-family="'DejaVuSans'"] {font-family: 'DejaVu Sans', Ariel, Helvetica, sans-serif; font-style: normal; font-weight: normal;}
</style>
<path d="M14 0.5H2C1.72386 0.5 1.5 0.723858 1.5 1V15C1.5 15.2761 1.72386 15.5 2 15.5H14C14.2761 15.5 14.5 15.2761 14.5 15V1C14.5 0.723858 14.2761 0.5 14 0.5Z" fill="white" stroke="#616161" stroke-linecap="round"/>
<path d="M8.5 2.5H12.5V6.5H8.5V2.5Z" fill="#B4DEFF"/>
<path d="M8.5 8.5H12.5V12.5H8.5V8.5Z" fill="#B4DEFF"/>
<path d="M8.5 2.5H12.5V6.5H8.5V2.5Z" stroke="#278CDD"/>
<path d="M8.5 8.5H12.5V12.5H8.5V8.5Z" stroke="#278CDD"/>
<path d="M4.5 4.5H6.5M3.5 6.5H5.5M4.5 8.5H6.5M4.5 12.5H6.5M3.5 10.5H5.5" stroke="#616162" stroke-linecap="square"/>
<path d="M3.5 2.5H5.5" stroke="#902623" stroke-linecap="square"/>
<defs><style>@import url("../../includes/shared/css/roboto.css");</style></defs></svg>
