<?xml version="1.0" encoding="UTF-8" standalone="no"?>
<svg xmlns="http://www.w3.org/2000/svg" fill="none" height="16" viewBox="0 0 16 16" width="16"><style>text[font-family="'DejaVuSans'"] {font-family: 'DejaVu Sans', Ariel, Helvetica, sans-serif; font-style: normal; font-weight: normal;}
</style>
<path d="M0.5 11.5V1.5H12.5V11.5H0.5Z" fill="white" stroke="#616162" stroke-linecap="square" stroke-linejoin="round"/>
<path d="M3.5 11V2" stroke="#616162" stroke-linecap="square" stroke-linejoin="round"/>
<line stroke="#616162" stroke-linecap="square" x1="1.5" x2="2.5" y1="3.5" y2="3.5"/>
<line stroke="#616162" stroke-linecap="square" x1="1.5" x2="2.5" y1="6.5" y2="6.5"/>
<line stroke="#616162" stroke-linecap="square" x1="1.5" x2="2.5" y1="9.5" y2="9.5"/>
<path d="M9.5 11V2" stroke="#616162" stroke-linecap="square" stroke-linejoin="round"/>
<line stroke="#616162" stroke-linecap="square" x1="10.5" x2="11.5" y1="3.5" y2="3.5"/>
<line stroke="#616162" stroke-linecap="square" x1="10.5" x2="11.5" y1="6.5" y2="6.5"/>
<line stroke="#616162" stroke-linecap="square" x1="10.5" x2="11.5" y1="9.5" y2="9.5"/>
<rect fill="#B4DEFF" height="10" rx="5" stroke="#1656A7" width="10" x="5.5" y="5.5"/>
<path d="M10.5 15.5C11.8807 15.5 13 13.2614 13 10.5C13 7.73858 11.8807 5.5 10.5 5.5M10.5 15.5C9.11929 15.5 8 13.2614 8 10.5C8 7.73858 9.11929 5.5 10.5 5.5M10.5 15.5V5.5M5.5 10.5C5.5 11.8807 7.73858 13 10.5 13C13.2614 13 15.5 11.8807 15.5 10.5M5.5 10.5C5.5 9.11929 7.73858 8 10.5 8C13.2614 8 15.5 9.11929 15.5 10.5M5.5 10.5L15.5 10.5" stroke="#1656A7"/>
<defs><style>@import url("../../includes/shared/css/roboto.css");</style></defs></svg>
