<?xml version="1.0" encoding="UTF-8" standalone="no"?>
<svg xmlns="http://www.w3.org/2000/svg" fill="none" height="16" viewBox="0 0 16 16" width="16"><style>text[font-family="'DejaVuSans'"] {font-family: 'DejaVu Sans', Ariel, Helvetica, sans-serif; font-style: normal; font-weight: normal;}
</style>
<path d="M0.5 9.5H15.5V14.5C15.5 15.0523 15.0523 15.5 14.5 15.5H1.5C0.947715 15.5 0.5 15.0523 0.5 14.5V9.5Z" fill="#D9D9D9" stroke="#616161"/>
<rect fill="#008014" height="2" rx="1" width="2" x="2" y="11"/>
<path d="M5.5 11.5H12.5M5.5 13.5H9.5" stroke="#616162" stroke-linecap="square"/>
<path d="M0.5 9.77271H15.5V1.49998C15.5 0.947692 15.0523 0.499978 14.5 0.499978H1.5C0.947715 0.499978 0.5 0.947693 0.5 1.49998V9.77271Z" fill="white"/>
<path d="M0.5 5C3 1.66667 5.5 1.66667 8 5C10.5 8.33333 13 8.33333 15.5 5" stroke="#0072BD" stroke-linecap="round"/>
<path d="M0.5 9.5H15.5V1.5C15.5 0.947715 15.0523 0.5 14.5 0.5H1.5C0.947715 0.5 0.5 0.947715 0.5 1.5V9.5Z" stroke="#616161"/>
<defs><style>@import url("../../includes/shared/css/roboto.css");</style></defs></svg>
