<?xml version="1.0" encoding="UTF-8" standalone="no"?>
<svg xmlns="http://www.w3.org/2000/svg" fill="none" height="16" viewBox="0 0 16 16" width="16"><style>text[font-family="'DejaVuSans'"] {font-family: 'DejaVu Sans', Ariel, Helvetica, sans-serif; font-style: normal; font-weight: normal;}
</style>
<path d="M0.5 10.5V1.5C0.5 0.947715 0.947715 0.5 1.5 0.5H10.5C11.0523 0.5 11.5 0.947715 11.5 1.5V10.5C11.5 11.0523 11.0523 11.5 10.5 11.5H1.5C0.947715 11.5 0.5 11.0523 0.5 10.5Z" fill="white" stroke="#616161"/>
<path d="M2 3H5V2H2V3ZM2 7H5V6H2V7ZM4 5H7V4H4V5Z" fill="#616162"/>
<rect fill="#CBFFBE" height="10" rx="5" stroke="#008013" transform="matrix(-1 0 0 1 15.5 5.5)" width="10"/>
<path d="M8 11L9.5 12.5L12.5 9.5" stroke="#008014" stroke-linecap="round" stroke-linejoin="round"/>
<defs><style>@import url("../includes/shared/css/roboto.css");</style></defs></svg>
