<?xml version="1.0" encoding="UTF-8" standalone="no"?>
<svg xmlns="http://www.w3.org/2000/svg" fill="none" height="24" viewBox="0 0 24 24" width="24"><style>text[font-family="'DejaVuSans'"] {font-family: 'DejaVu Sans', Ariel, Helvetica, sans-serif; font-style: normal; font-weight: normal;}
</style>
<path d="M4.5 0.5H18.5C19.6046 0.5 20.5 1.39543 20.5 2.5V21.5C20.5 22.6046 19.6046 23.5 18.5 23.5H4.5C3.39543 23.5 2.5 22.6046 2.5 21.5V2.5C2.5 1.39543 3.39543 0.5 4.5 0.5Z" fill="white" stroke="#616161" stroke-linecap="round"/>
<path d="M3 11H20V14H3V11Z" fill="#CBFFBE"/>
<path d="M3 17H20V20H3V17Z" fill="#CBFFBE"/>
<path d="M13.5 12.5H11H8.5M13.5 18.5H8.5" stroke="#02580E" stroke-linecap="round"/>
<path d="M3 5H20V8H3V5Z" fill="#FF9D9A"/>
<path d="M13.5 6.5H8.5" stroke="#610908" stroke-linecap="round"/>
<path d="M10.5 3.5H5.5M10.5 15.5H5.5M16.5 9.5H11.5" stroke="#888889" stroke-linecap="round"/>
<defs><style>@import url("../../includes/shared/css/roboto.css");</style></defs></svg>
