<?xml version="1.0" encoding="UTF-8" standalone="no"?>
<svg xmlns="http://www.w3.org/2000/svg" viewBox="0 0 275.15 103.4"><style>text[font-family="'DejaVuSans'"] {font-family: 'DejaVu Sans', Ariel, Helvetica, sans-serif; font-style: normal; font-weight: normal;}
</style><defs><style>@import url("../../includes/shared/css/roboto.css");
.f{fill:#eaaa00;}.f,.g,.h,.i{stroke:#000;stroke-linecap:round;stroke-linejoin:round;stroke-width:1.5px;}.j,.k,.l{font-family:Roboto-Medium, Roboto;font-weight:500;}.m,.n{font-family:Roboto-Regular, Roboto;}.k,.o{letter-spacing:-.02em;}.p{letter-spacing:-.02em;}.n,.q,.l{fill:#000;font-size:12px;}.g{fill:#b5dbf5;}.r{letter-spacing:0em;}.h{fill:#b0eba9;}.i{fill:#e6e6e6;}</style></defs><g id="d"><rect class="g" height="41.19" width="34.21" x=".75" y="20.27"/><rect class="f" height="20.59" width="74.81" x="34.96" y="20.27"/><rect class="i" height="82.32" width="82.32" x="109.76" y="20.27"/><rect class="i" height="19.52" width="82.32" x="109.76" y=".75"/><rect class="h" height="82.32" width="82.32" x="192.08" y="20.27"/><rect class="h" height="19.52" width="82.32" x="192.08" y=".75"/><rect class="f" height="20.59" width="74.81" x="34.96" y="40.86"/><rect class="g" height="41.19" width="34.21" x=".75" y="61.46"/><rect class="f" height="20.59" width="74.81" x="34.96" y="61.46"/><rect class="f" height="20.59" width="74.81" x="34.96" y="82.05"/></g><g id="e"><text class="l" transform="translate(115.61 14.02)"><tspan x="0" y="0">G</tspan><tspan class="p" x="8.17" y="0">r</tspan><tspan x="12.18" y="0">oupCounts</tspan></text><text class="l" transform="translate(10.45 44.37)"><tspan x="0" y="0">A1</tspan></text><text class="l" transform="translate(50.02 34.07)"><tspan class="o" x="0" y="0">V</tspan><tspan x="7.49" y="0">arB &lt; 0</tspan></text><text class="l" transform="translate(49.95 54.67)"><tspan class="o" x="0" y="0">V</tspan><tspan x="7.49" y="0">arB &gt; 0</tspan></text><text class="l" transform="translate(50.02 75.26)"><tspan class="o" x="0" y="0">V</tspan><tspan x="7.49" y="0">arB &lt; 0</tspan></text><text class="l" transform="translate(49.95 95.86)"><tspan class="o" x="0" y="0">V</tspan><tspan x="7.49" y="0">arB &gt; 0</tspan></text><text class="l" transform="translate(10.45 85.56)"><tspan x="0" y="0">A2</tspan></text><text class="l" transform="translate(207.42 14.02)"><tspan x="0" y="0">min_</tspan><tspan class="o" x="25.59" y="0">V</tspan><tspan x="33.09" y="0">arC</tspan></text><text class="n" transform="translate(122.51 52.93)"><tspan x="0" y="0">Number of</tspan><tspan x="12.98" y="12">g</tspan><tspan class="r" x="19.71" y="12">r</tspan><tspan x="23.65" y="12">oup</tspan><tspan x="3.04" y="24">members</tspan></text><text class="q" transform="translate(201.74 64.93)"><tspan class="m" x="0" y="0">Min of </tspan><tspan class="k" x="36.96" y="0">V</tspan><tspan class="j" x="44.46" y="0">arC</tspan></text></g></svg>
