<?xml version="1.0" encoding="UTF-8" standalone="no"?>
<svg xmlns="http://www.w3.org/2000/svg" viewBox="0 0 318.23 71.48"><style>text[font-family="'DejaVuSans'"] {font-family: 'DejaVu Sans', Ariel, Helvetica, sans-serif; font-style: normal; font-weight: normal;}
</style><defs><style>@import url("../../includes/shared/css/roboto.css");
.f{fill:#eaaa00;}.f,.g,.h,.i{stroke:#000;stroke-linecap:round;stroke-linejoin:round;stroke-width:1.5px;}.j,.k,.l{font-family:Roboto-Medium, Roboto;font-weight:500;}.m,.n{font-family:Roboto-Regular, Roboto;}.k,.o{letter-spacing:-.02em;}.p{letter-spacing:-.02em;}.n,.q,.l{fill:#000;font-size:12px;}.g{fill:#b5dbf5;}.r{letter-spacing:0em;}.h{fill:#b0eba9;}.i{fill:#e6e6e6;}</style></defs><g id="d"><rect class="g" height="23.21" width="38.31" x=".75" y="24.31"/><rect class="g" height="23.21" width="38.31" x=".75" y="47.52"/><rect class="i" height="46.42" width="93.13" x="39.06" y="24.31"/><rect class="i" height="23.56" width="93.13" x="39.06" y=".75"/><rect class="f" height="46.42" width="93.13" x="131.22" y="24.31"/><rect class="f" height="23.56" width="93.13" x="131.22" y=".75"/><rect class="h" height="46.42" width="93.13" x="224.35" y="24.31"/><rect class="h" height="23.56" width="93.13" x="224.35" y=".75"/></g><g id="e"><text class="l" transform="translate(50.32 16.04)"><tspan x="0" y="0">G</tspan><tspan class="p" x="8.17" y="0">r</tspan><tspan x="12.18" y="0">oupCounts</tspan></text><text class="l" transform="translate(12.5 39.42)"><tspan x="0" y="0">A1</tspan></text><text class="l" transform="translate(12.5 62.63)"><tspan x="0" y="0">A2</tspan></text><text class="l" transform="translate(240.16 16.04)"><tspan x="0" y="0">mean_</tspan><tspan class="o" x="35.46" y="0">V</tspan><tspan x="42.96" y="0">arC</tspan></text><text class="l" transform="translate(147.16 16.04)"><tspan x="0" y="0">mean_</tspan><tspan class="o" x="35.46" y="0">V</tspan><tspan x="42.96" y="0">arB</tspan></text><text class="n" transform="translate(57.21 39.03)"><tspan x="0" y="0">Number of</tspan><tspan x="12.98" y="12">g</tspan><tspan class="r" x="19.71" y="12">r</tspan><tspan x="23.65" y="12">oup</tspan><tspan x="3.04" y="24">members</tspan></text><text class="q" transform="translate(141.3 51.03)"><tspan class="m" x="0" y="0">Mean of </tspan><tspan class="k" x="46.93" y="0">V</tspan><tspan class="j" x="54.43" y="0">arC</tspan></text><text class="q" transform="translate(234.43 51.03)"><tspan class="m" x="0" y="0">Mean of </tspan><tspan class="k" x="46.93" y="0">V</tspan><tspan class="j" x="54.43" y="0">arC</tspan></text></g></svg>
