<?xml version="1.0" encoding="UTF-8" standalone="no"?>
<svg xmlns="http://www.w3.org/2000/svg" viewBox="0 0 409.05 72.76"><style>text[font-family="'DejaVuSans'"] {font-family: 'DejaVu Sans', Ariel, Helvetica, sans-serif; font-style: normal; font-weight: normal;}
</style><defs><style>@import url("../../includes/shared/css/roboto.css");
.f{fill:#eaaa00;}.f,.g,.h{stroke:#000;stroke-linecap:round;stroke-linejoin:round;stroke-width:1.5px;}.i,.j,.k{font-family:Roboto-Medium, Roboto;font-weight:500;}.l,.m{font-family:Roboto-Regular, Roboto;}.j,.n{letter-spacing:-.02em;}.o{letter-spacing:-.02em;}.m,.p,.k{fill:#000;font-size:12px;}.g{fill:#b5dbf5;}.q{letter-spacing:0em;}.h{fill:#e6e6e6;}</style></defs><g id="d"><rect class="g" height="24.1" width="38.35" x=".75" y="23.81"/><rect class="h" height="48.2" width="92.3" x="39.1" y="23.81"/><rect class="h" height="23.06" width="92.3" x="39.1" y=".75"/><rect class="f" height="48.2" width="92.3" x="131.4" y="23.81"/><rect class="f" height="23.06" width="92.3" x="131.4" y=".75"/><rect class="f" height="48.2" width="92.3" x="223.7" y="23.81"/><rect class="f" height="23.06" width="92.3" x="223.7" y=".75"/><rect class="f" height="48.2" width="92.3" x="316" y="23.81"/><rect class="f" height="23.06" width="92.3" x="316" y=".75"/><rect class="g" height="24.1" width="38.35" x=".75" y="47.91"/></g><g id="e"><text class="k" transform="translate(49.94 15.79)"><tspan x="0" y="0">G</tspan><tspan class="o" x="8.17" y="0">r</tspan><tspan x="12.18" y="0">oupCounts</tspan></text><text class="k" transform="translate(12.52 39.37)"><tspan x="0" y="0">A1</tspan></text><text class="k" transform="translate(12.52 63.47)"><tspan x="0" y="0">A2</tspan></text><text class="k" transform="translate(146.93 15.79)"><tspan x="0" y="0">mean_</tspan><tspan class="n" x="35.46" y="0">V</tspan><tspan x="42.96" y="0">arB</tspan></text><text class="k" transform="translate(234.31 15.79)"><tspan x="0" y="0">median_</tspan><tspan class="n" x="45.3" y="0">V</tspan><tspan x="52.79" y="0">arB</tspan></text><text class="k" transform="translate(331.31 15.79)"><tspan x="0" y="0">mode_</tspan><tspan class="n" x="35.9" y="0">V</tspan><tspan x="43.39" y="0">arB</tspan></text><text class="m" transform="translate(56.83 39.42)"><tspan x="0" y="0">Number of</tspan><tspan x="12.98" y="12">g</tspan><tspan class="q" x="19.71" y="12">r</tspan><tspan x="23.65" y="12">oup</tspan><tspan x="3.04" y="24">members</tspan></text><text class="p" transform="translate(141.2 51.42)"><tspan class="l" x="0" y="0">Mean of </tspan><tspan class="j" x="46.93" y="0">V</tspan><tspan class="i" x="54.43" y="0">arB</tspan></text><text class="p" transform="translate(228.65 51.42)"><tspan class="l" x="0" y="0">Median of </tspan><tspan class="j" x="56.61" y="0">V</tspan><tspan class="i" x="64.11" y="0">arB</tspan></text><text class="p" transform="translate(325.56 51.42)"><tspan class="l" x="0" y="0">Mode of </tspan><tspan class="j" x="47.4" y="0">V</tspan><tspan class="i" x="54.89" y="0">arB</tspan></text></g></svg>
