<?xml version="1.0" encoding="UTF-8" standalone="no"?>
<svg xmlns="http://www.w3.org/2000/svg" viewBox="0 0 158.1 222"><style>text[font-family="'DejaVuSans'"] {font-family: 'DejaVu Sans', Ariel, Helvetica, sans-serif; font-style: normal; font-weight: normal;}
</style><defs><style>@import url("../../includes/shared/css/roboto.css");
.f{fill:#eaaa00;}.f,.g,.h,.i,.j{stroke:#000;stroke-linecap:round;stroke-linejoin:round;stroke-width:1.5px;}.k{letter-spacing:-.02em;}.g{fill:#fbfbfb;}.h{fill:#f5f5f5;}.l{font-family:Roboto-Regular, Roboto;}.l,.m{fill:#000;font-size:12px;}.i{fill:#b5dbf5;}.m{font-family:Roboto-Medium, Roboto;font-weight:500;}.j{fill:#b0eba9;}</style></defs><g id="d"><rect class="j" height="200.98" width="52.27" x="105.09" y="20.27"/><rect class="g" height="19.52" width="52.27" x="105.09" y=".75"/><rect class="f" height="200.98" width="52.27" x="53.02" y="20.27"/><rect class="h" height="19.52" width="52.27" x="53.02" y=".75"/><rect class="i" height="200.98" width="52.27" x=".75" y="20.27"/><rect class="g" height="19.52" width="52.27" x=".75" y=".75"/></g><g id="e"><text class="m" transform="translate(118.2 14.02)"><tspan class="k" x="0" y="0">V</tspan><tspan x="7.49" y="0">arC</tspan></text><text class="l" transform="translate(108.57 118.27)"><tspan x="0" y="0">Numeric</tspan><tspan class="k" x="4.67" y="12">V</tspan><tspan x="12.03" y="12">alues</tspan></text><text class="m" transform="translate(66.26 14.02)"><tspan class="k" x="0" y="0">V</tspan><tspan x="7.49" y="0">arB</tspan></text><text class="l" transform="translate(56.5 118.27)"><tspan x="0" y="0">Numeric</tspan><tspan class="k" x="4.67" y="12">V</tspan><tspan x="12.03" y="12">alues</tspan></text><text class="m" transform="translate(13.79 14.02)"><tspan class="k" x="0" y="0">V</tspan><tspan x="7.49" y="0">arA</tspan></text><text class="l" transform="translate(19.6 36.27)"><tspan x="0" y="0">A1</tspan><tspan x="0" y="16">A1</tspan><tspan x="0" y="32">A1</tspan><tspan x="0" y="48">A1</tspan><tspan x="0" y="64">A1</tspan><tspan x="0" y="80">A1</tspan><tspan x="0" y="96">A2</tspan><tspan x="0" y="112">A2</tspan><tspan x="0" y="128">A2</tspan><tspan x="0" y="144">A2</tspan><tspan x="0" y="160">A2</tspan><tspan x="0" y="176">A2</tspan></text></g></svg>
