<?xml version="1.0" encoding="UTF-8" standalone="no"?>
<svg xmlns="http://www.w3.org/2000/svg" id="text" viewBox="0 0 728.71 137.06"><style>text[font-family="'DejaVuSans'"] {font-family: 'DejaVu Sans', Ariel, Helvetica, sans-serif; font-style: normal; font-weight: normal;}
</style><defs><style>@import url("../../includes/shared/css/roboto.css");
.cls-1,.cls-2,.cls-3,.cls-4,.cls-5{font-family:Roboto-MediumItalic, Roboto;font-style:italic;}.cls-1,.cls-6{font-size:8.94px;}.cls-2{font-size:15px;}.cls-7,.cls-6,.cls-8,.cls-9{font-family:Roboto-Medium, Roboto;}.cls-3,.cls-9,.cls-10{font-size:14px;}.cls-8{font-size:13.41px;}.cls-8,.cls-11,.cls-10{font-weight:500;}.cls-12{fill:#fff;}.cls-13{fill:none;stroke:#000;stroke-miterlimit:10;}.cls-5{font-size:11.17px;}</style></defs><text class="cls-10" transform="translate(.49 11.98)"><tspan class="cls-4" x="0" y="0">x</tspan><tspan class="cls-7" x="6.9" y="0">(</tspan><tspan class="cls-4" x="11.78" y="0">m</tspan><tspan class="cls-7" x="23.67" y="0">)</tspan></text><text class="cls-10" transform="translate(56.81 38.79)"><tspan class="cls-4" x="0" y="0">b</tspan><tspan class="cls-7" x="7.71" y="0">(</tspan><tspan class="cls-4" x="12.59" y="0">n</tspan><tspan class="cls-7" x="20.21" y="0">)</tspan></text><text class="cls-10" transform="translate(187.16 38.79)"><tspan class="cls-4" x="0" y="0">b</tspan><tspan class="cls-7" x="7.71" y="0">(</tspan><tspan class="cls-4" x="12.59" y="0">n</tspan><tspan class="cls-7" x="20.21" y="0">–1)</tspan></text><text class="cls-10" transform="translate(381.04 38.79)"><tspan class="cls-4" x="0" y="0">b</tspan><tspan class="cls-7" x="7.71" y="0">(3)</tspan></text><text class="cls-10" transform="translate(520.42 38.79)"><tspan class="cls-4" x="0" y="0">b</tspan><tspan class="cls-7" x="7.71" y="0">(2)</tspan></text><text class="cls-10" transform="translate(700.33 72.09)"><tspan class="cls-4" x="0" y="0">y</tspan><tspan class="cls-7" x="6.68" y="0">(</tspan><tspan class="cls-4" x="11.56" y="0">m</tspan><tspan class="cls-7" x="23.45" y="0">)</tspan></text><text class="cls-10" transform="translate(659.78 38.79)"><tspan class="cls-4" x="0" y="0">b</tspan><tspan class="cls-7" x="7.71" y="0">(1)</tspan></text><text class="cls-10" transform="translate(15.25 116.05)"><tspan class="cls-7" x="0" y="0">–</tspan><tspan class="cls-4" x="9.03" y="0">a</tspan><tspan class="cls-7" x="16.45" y="0">(</tspan><tspan class="cls-4" x="21.33" y="0">n</tspan><tspan class="cls-7" x="28.95" y="0">)</tspan></text><text class="cls-10" transform="translate(122.9 116.05)"><tspan class="cls-7" x="0" y="0">–</tspan><tspan class="cls-4" x="9.03" y="0">a</tspan><tspan class="cls-7" x="16.45" y="0">(</tspan><tspan class="cls-4" x="21.33" y="0">n</tspan><tspan class="cls-7" x="28.95" y="0">–1)</tspan></text><text class="cls-10" transform="translate(339.76 116.05)"><tspan class="cls-7" x="0" y="0">–</tspan><tspan class="cls-4" x="9.03" y="0">a</tspan><tspan class="cls-7" x="16.45" y="0">(3)</tspan></text><text class="cls-10" transform="translate(479.29 116.05)"><tspan class="cls-7" x="0" y="0">–</tspan><tspan class="cls-4" x="9.03" y="0">a</tspan><tspan class="cls-7" x="16.45" y="0">(2)</tspan></text><text class="cls-11" transform="translate(127.99 73.61)"><tspan class="cls-3" x="0" y="0">z</tspan><tspan class="cls-6" x="6.9" y="-3.35">–1</tspan></text><text class="cls-11" transform="translate(261 73.61)"><tspan class="cls-2" x="0" y="0">z</tspan><tspan class="cls-6" x="7.39" y="-3.35">–1</tspan></text><text class="cls-11" transform="translate(454.24 73.61)"><tspan class="cls-3" x="0" y="0">z</tspan><tspan class="cls-6" x="6.9" y="-3.35">–1</tspan></text><text class="cls-11" transform="translate(593.72 73.61)"><tspan class="cls-3" x="0" y="0">z</tspan><tspan class="cls-6" x="6.9" y="-3.35">–1</tspan></text><text class="cls-11" transform="translate(196.84 86.17)"><tspan class="cls-3" x="0" y="0">w</tspan><tspan class="cls-1" x="10.16" y="3.35">n</tspan><tspan class="cls-6" x="15.03" y="3.35">–2</tspan><tspan class="cls-5" x="25.87" y="0"> </tspan><tspan class="cls-9" x="28.63" y="0">(</tspan><tspan class="cls-3" x="33.51" y="0">m</tspan><tspan class="cls-9" x="45.4" y="0">)</tspan></text><text class="cls-11" transform="translate(394.83 86.17)"><tspan class="cls-3" x="0" y="0">w</tspan><tspan class="cls-6" x="10.16" y="3.35">2</tspan><tspan class="cls-5" x="15.24" y="0"> </tspan><tspan class="cls-9" x="18" y="0">(</tspan><tspan class="cls-3" x="22.88" y="0">m</tspan><tspan class="cls-9" x="34.76" y="0">)</tspan></text><text class="cls-11" transform="translate(534.83 86.17)"><tspan class="cls-3" x="0" y="0">w</tspan><tspan class="cls-6" x="10.16" y="3.35">1</tspan><tspan class="cls-5" x="15.24" y="0"> </tspan><tspan class="cls-9" x="18" y="0">(</tspan><tspan class="cls-3" x="22.88" y="0">m</tspan><tspan class="cls-9" x="34.76" y="0">)</tspan></text><text class="cls-11" transform="translate(64.53 86.17)"><tspan class="cls-3" x="0" y="0">w</tspan><tspan class="cls-1" x="10.16" y="3.35">n</tspan><tspan class="cls-6" x="15.03" y="3.35">–1</tspan><tspan class="cls-5" x="25.87" y="0"> </tspan><tspan class="cls-9" x="28.63" y="0">(</tspan><tspan class="cls-3" x="33.51" y="0">m</tspan><tspan class="cls-9" x="45.4" y="0">)</tspan></text><text class="cls-8" transform="translate(49.62 74.17)"><tspan x="0" y="0">+</tspan></text><polygon class="cls-13" points="119.52 69.79 119.52 56.86 154.04 56.86 154.04 82.71 119.52 82.71 119.52 69.79"/><polygon class="cls-13" points="252.77 69.79 252.77 56.86 287.29 56.86 287.29 82.71 252.77 82.71 252.77 69.79"/><polygon class="cls-13" points="445.76 69.79 445.76 56.86 480.29 56.86 480.29 82.71 445.76 82.71 445.76 69.79"/><line class="cls-13" x1="53.34" x2="53.37" y1="8.46" y2="55.46"/><polygon points="49.88 54.44 53.37 60.48 56.86 54.44 49.88 54.44"/><line class="cls-13" x1="184.16" x2="184.18" y1="8.46" y2="55.46"/><polygon points="180.69 54.44 184.18 60.48 187.67 54.44 180.69 54.44"/><line class="cls-13" x1="184.16" x2="184.18" y1="132.69" y2="84.11"/><polygon points="187.67 85.14 184.18 79.09 180.69 85.13 187.67 85.14"/><line class="cls-13" x1="377.66" x2="377.68" y1="8.46" y2="55.46"/><polygon points="374.19 54.44 377.68 60.48 381.17 54.44 374.19 54.44"/><line class="cls-13" x1="377.66" x2="377.68" y1="132.69" y2="84.11"/><polygon points="381.17 85.14 377.68 79.09 374.19 85.13 381.17 85.14"/><polyline class="cls-13" points="31.32 8.46 656.41 8.46 656.43 55.46"/><polygon points="652.94 54.44 656.43 60.48 659.92 54.44 652.94 54.44"/><line class="cls-13" x1="61" x2="113.38" y1="69.81" y2="69.77"/><polygon points="112.36 73.26 118.4 69.77 112.35 66.28 112.36 73.26"/><line class="cls-13" x1="154.6" x2="169.84" y1="69.77" y2="69.8"/><polygon points="168.82 73.29 174.87 69.81 168.83 66.3 168.82 73.29"/><line class="cls-13" x1="192.36" x2="246.63" y1="69.81" y2="69.77"/><polygon points="245.61 73.26 251.65 69.77 245.61 66.28 245.61 73.26"/><line class="cls-13" x1="385.86" x2="438.48" y1="69.81" y2="69.77"/><polygon points="437.46 73.26 443.51 69.77 437.46 66.28 437.46 73.26"/><line class="cls-13" x1="287.85" x2="363.56" y1="69.79" y2="69.79"/><polygon points="362.54 73.28 368.59 69.79 362.54 66.3 362.54 73.28"/><polyline class="cls-13" points="264.56 132.69 53.34 132.69 53.36 84.11"/><polygon points="56.85 85.14 53.37 79.09 49.87 85.13 56.85 85.14"/><polyline class="cls-13" points="264.56 132.69 678.46 132.69 678.46 75.95"/><polygon points="681.95 76.97 678.46 70.92 674.97 76.97 681.95 76.97"/><polygon class="cls-12" points="310.2 69.79 310.2 65.42 343.13 65.42 343.13 74.16 310.2 74.16 310.2 69.79"/><path d="M316.65,69.79c0-.61-.5-1.11-1.11-1.11s-1.11.5-1.11,1.11.5,1.11,1.11,1.11,1.11-.5,1.11-1.11h0Z"/><path d="M327.78,69.79c0-.61-.5-1.11-1.11-1.11s-1.11.5-1.11,1.11.5,1.11,1.11,1.11,1.11-.5,1.11-1.11h0Z"/><path d="M338.91,69.79c0-.61-.5-1.11-1.11-1.11s-1.11.5-1.11,1.11.5,1.11,1.11,1.11,1.11-.5,1.11-1.11h0Z"/><polygon class="cls-12" points="310.2 132.69 310.2 128.31 343.13 128.31 343.13 137.06 310.2 137.06 310.2 132.69"/><path d="M316.65,132.69c0-.61-.5-1.11-1.11-1.11s-1.11.5-1.11,1.11.5,1.11,1.11,1.11,1.11-.5,1.11-1.11h0Z"/><path d="M327.78,132.69c0-.61-.5-1.11-1.11-1.11s-1.11.5-1.11,1.11.5,1.11,1.11,1.11,1.11-.5,1.11-1.11h0Z"/><path d="M338.91,132.69c0-.61-.5-1.11-1.11-1.11s-1.11.5-1.11,1.11.5,1.11,1.11,1.11,1.11-.5,1.11-1.11h0Z"/><polygon class="cls-12" points="310.2 8.46 310.2 4.08 343.13 4.08 343.13 12.83 310.2 12.83 310.2 8.46"/><path d="M316.65,8.46c0-.61-.5-1.11-1.11-1.11s-1.11.5-1.11,1.11.5,1.11,1.11,1.11,1.11-.5,1.11-1.11h0Z"/><path d="M327.78,8.46c0-.61-.5-1.11-1.11-1.11s-1.11.5-1.11,1.11.5,1.11,1.11,1.11,1.11-.5,1.11-1.11h0Z"/><path d="M338.91,8.46c0-.61-.5-1.11-1.11-1.11s-1.11.5-1.11,1.11.5,1.11,1.11,1.11,1.11-.5,1.11-1.11h0Z"/><circle class="cls-13" cx="53.34" cy="69.81" r="8.19"/><text class="cls-8" transform="translate(180.44 74.17)"><tspan x="0" y="0">+</tspan></text><circle class="cls-13" cx="184.17" cy="69.79" r="8.19"/><text class="cls-8" transform="translate(373.94 74.17)"><tspan x="0" y="0">+</tspan></text><circle class="cls-13" cx="377.67" cy="69.79" r="8.19"/><line class="cls-13" x1="517.04" x2="517.06" y1="8.46" y2="55.46"/><polygon points="513.57 54.44 517.07 60.48 520.55 54.44 513.57 54.44"/><line class="cls-13" x1="517.04" x2="517.06" y1="132.69" y2="84.11"/><polygon points="520.55 85.14 517.07 79.09 513.57 85.13 520.55 85.14"/><line class="cls-13" x1="525.24" x2="579.1" y1="69.81" y2="69.77"/><polygon points="578.08 73.26 584.12 69.77 578.08 66.28 578.08 73.26"/><line class="cls-13" x1="480.29" x2="502.95" y1="69.79" y2="69.79"/><polygon points="501.92 73.28 507.97 69.79 501.92 66.3 501.92 73.28"/><polygon class="cls-13" points="585.24 69.79 585.24 56.86 619.76 56.86 619.76 82.71 585.24 82.71 585.24 69.79"/><line class="cls-13" x1="619.76" x2="642.43" y1="69.79" y2="69.79"/><polygon points="641.4 73.28 647.45 69.79 641.4 66.3 641.4 73.28"/><line class="cls-13" x1="664.62" x2="693.45" y1="69.79" y2="69.79"/><polygon points="692.43 73.28 698.48 69.79 692.43 66.3 692.43 73.28"/><text class="cls-8" transform="translate(513.32 74.17)"><tspan x="0" y="0">+</tspan></text><circle class="cls-13" cx="517.05" cy="69.79" r="8.19"/><text class="cls-8" transform="translate(652.7 74.17)"><tspan x="0" y="0">+</tspan></text><circle class="cls-13" cx="656.43" cy="69.79" r="8.19"/></svg>
