<?xml version="1.0" encoding="UTF-8" standalone="no"?>
<svg xmlns="http://www.w3.org/2000/svg" viewBox="0 0 160.29 109.56"><style>text[font-family="'DejaVuSans'"] {font-family: 'DejaVu Sans', Ariel, Helvetica, sans-serif; font-style: normal; font-weight: normal;}
</style><defs><style>@import url("../../includes/shared/css/roboto.css");
.f{fill:#eaaa00;}.f,.g,.h{stroke:#000;stroke-linecap:round;stroke-linejoin:round;stroke-width:1.5px;}.i{font-family:Roboto-Regular, Roboto;}.i,.j{fill:#000;font-size:12px;}.g{fill:#b5dbf5;}.j{font-family:Roboto-Medium, Roboto;font-weight:500;}.k{letter-spacing:0em;}.h{fill:#e6e6e6;}</style></defs><g id="d"><rect class="g" height="54.03" width="40.46" x=".75" y=".75"/><rect class="h" height="108.06" width="77.86" x="81.68" y=".75"/><rect class="f" height="27.02" width="40.46" x="41.21" y=".75"/><rect class="f" height="27.02" width="40.46" x="41.21" y="27.77"/><rect class="f" height="27.02" width="40.46" x="41.21" y="54.78"/><rect class="f" height="27.02" width="40.46" x="41.21" y="81.8"/><rect class="g" height="54.03" width="40.46" x=".75" y="54.78"/></g><g id="e"><text class="i" transform="translate(104.45 58.29)"><tspan x="0" y="0">G</tspan><tspan class="k" x="8.17" y="0">r</tspan><tspan x="12.12" y="0">oup</tspan><tspan x="-2.08" y="13">counts</tspan></text><text class="j" transform="translate(13.58 31.27)"><tspan x="0" y="0">A1</tspan></text><text class="j" transform="translate(54.25 17.76)"><tspan x="0" y="0">B1</tspan></text><text class="j" transform="translate(54.25 44.78)"><tspan x="0" y="0">B2</tspan></text><text class="j" transform="translate(54.25 71.8)"><tspan x="0" y="0">B1</tspan></text><text class="j" transform="translate(54.25 98.81)"><tspan x="0" y="0">B2</tspan></text><text class="j" transform="translate(13.58 85.31)"><tspan x="0" y="0">A2</tspan></text></g></svg>
