<?xml version="1.0" encoding="UTF-8" standalone="no"?>
<svg xmlns="http://www.w3.org/2000/svg" viewBox="0 0 159.01 108.64"><style>text[font-family="'DejaVuSans'"] {font-family: 'DejaVu Sans', Ariel, Helvetica, sans-serif; font-style: normal; font-weight: normal;}
</style><defs><style>@import url("../../includes/shared/css/roboto.css");
.f{fill:#eaaa00;}.f,.g,.h{stroke:#000;stroke-linecap:round;stroke-linejoin:round;stroke-width:1.5px;}.i{font-family:Roboto-Regular, Roboto;}.i,.j{fill:#000;font-size:12px;}.g{fill:#b5dbf5;}.j{font-family:Roboto-Medium, Roboto;font-weight:500;}.k{letter-spacing:0em;}.h{fill:#e6e6e6;}</style></defs><g id="d"><rect class="h" height="52.54" width="157.51" x=".75" y="55.35"/><rect class="f" height="27.38" width="39.38" x=".75" y="27.97"/><rect class="g" height="27.38" width="78.76" x=".75" y=".75"/><rect class="g" height="27.38" width="78.76" x="79.51" y=".75"/><rect class="f" height="27.38" width="39.38" x="40.13" y="27.97"/><rect class="f" height="27.38" width="39.38" x="79.51" y="27.97"/><rect class="f" height="27.38" width="39.38" x="118.88" y="27.97"/></g><g id="e"><text class="i" transform="translate(43.63 85.13)"><tspan x="0" y="0">G</tspan><tspan class="k" x="8.17" y="0">r</tspan><tspan x="12.12" y="0">oup counts</tspan></text><text class="j" transform="translate(32.72 17.94)"><tspan x="0" y="0">A1</tspan></text><text class="j" transform="translate(13.24 45.17)"><tspan x="0" y="0">B1</tspan></text><text class="j" transform="translate(52.62 45.17)"><tspan x="0" y="0">B2</tspan></text><text class="j" transform="translate(92 45.17)"><tspan x="0" y="0">B1</tspan></text><text class="j" transform="translate(131.38 45.17)"><tspan x="0" y="0">B2</tspan></text><text class="j" transform="translate(111.48 17.95)"><tspan x="0" y="0">A2</tspan></text></g></svg>
