<?xml version="1.0" encoding="UTF-8" standalone="no"?>
<svg xmlns="http://www.w3.org/2000/svg" viewBox="0 0 210.56 284.49"><style>text[font-family="'DejaVuSans'"] {font-family: 'DejaVu Sans', Ariel, Helvetica, sans-serif; font-style: normal; font-weight: normal;}
</style><defs><style>@import url("../../includes/shared/css/roboto.css");
.f{fill:#eaaa00;}.f,.g,.h,.i,.j,.k{stroke:#000;stroke-linecap:round;stroke-linejoin:round;stroke-width:1.5px;}.l{letter-spacing:0em;}.m{letter-spacing:-.02em;}.g{fill:#fbfbfb;}.h{fill:#f5f5f5;}.n{font-family:Roboto-Regular, Roboto;}.n,.o{fill:#000;font-size:12px;}.i{fill:#b5dbf5;}.o{font-family:Roboto-Medium, Roboto;font-weight:500;}.j{fill:#b0eba9;}.k{fill:#e6e6e6;}</style></defs><g id="d"><rect class="f" height="263.47" width="52.27" x="53.02" y="20.27"/><rect class="h" height="19.52" width="52.27" x="53.02" y=".75"/><rect class="j" height="263.47" width="52.27" x="105.28" y="20.27"/><rect class="h" height="19.52" width="52.27" x="105.28" y=".75"/><rect class="k" height="263.47" width="52.27" x="157.55" y="20.27"/><rect class="h" height="19.52" width="52.27" x="157.55" y=".75"/><rect class="i" height="263.47" width="52.27" x=".75" y="20.27"/><rect class="g" height="19.52" width="52.27" x=".75" y=".75"/></g><g id="e"><text class="o" transform="translate(66.26 14.02)"><tspan class="m" x="0" y="0">V</tspan><tspan x="7.49" y="0">arB</tspan></text><text class="o" transform="translate(13.79 14.02)"><tspan class="m" x="0" y="0">V</tspan><tspan x="7.49" y="0">arA</tspan></text><text class="n" transform="translate(19.6 36.27)"><tspan x="0" y="0">A1</tspan><tspan x="0" y="16">A1</tspan><tspan x="0" y="32">A1</tspan><tspan x="0" y="48">A1</tspan><tspan x="0" y="64">A1</tspan><tspan x="0" y="80">A1</tspan><tspan x="0" y="96">A1</tspan><tspan x="0" y="112">A1</tspan><tspan x="0" y="128">A2</tspan><tspan x="0" y="144">A2</tspan><tspan x="0" y="160">A2</tspan><tspan x="0" y="176">A2</tspan><tspan x="0" y="192">A2</tspan><tspan x="0" y="208">A2</tspan><tspan x="0" y="224">A2</tspan><tspan x="0" y="240">A2</tspan></text><text class="n" transform="translate(72.04 36.27)"><tspan x="0" y="0">B1</tspan><tspan x="0" y="16">B1</tspan><tspan x="0" y="32">B2</tspan><tspan x="0" y="48">B2</tspan><tspan x="0" y="64">B1</tspan><tspan x="0" y="80">B1</tspan><tspan x="0" y="96">B2</tspan><tspan x="0" y="112">B2</tspan><tspan x="0" y="128">B1</tspan><tspan x="0" y="144">B1</tspan><tspan x="0" y="160">B2</tspan><tspan x="0" y="176">B2</tspan><tspan x="0" y="192">B1</tspan><tspan x="0" y="208">B1</tspan><tspan x="0" y="224">B2</tspan><tspan x="0" y="240">B2</tspan></text><text class="o" transform="translate(118.39 14.02)"><tspan class="m" x="0" y="0">V</tspan><tspan x="7.49" y="0">arC</tspan></text><text class="n" transform="translate(124.14 36.27)"><tspan x="0" y="0">C1</tspan><tspan x="0" y="16">C1</tspan><tspan x="0" y="32">C2</tspan><tspan x="0" y="48">C2</tspan><tspan x="0" y="64">C1</tspan><tspan x="0" y="80">C1</tspan><tspan x="0" y="96">C2</tspan><tspan x="0" y="112">C2</tspan><tspan x="0" y="128">C1</tspan><tspan x="0" y="144">C1</tspan><tspan x="0" y="160">C2</tspan><tspan x="0" y="176">C2</tspan><tspan x="0" y="192">C1</tspan><tspan x="0" y="208">C1</tspan><tspan x="0" y="224">C2</tspan><tspan x="0" y="240">C2</tspan></text><text class="o" transform="translate(170.66 14.02)"><tspan class="m" x="0" y="0">V</tspan><tspan x="7.49" y="0">arD</tspan></text><text class="n" transform="translate(171.26 149.51)"><tspan x="0" y="0">Data</tspan><tspan class="l" x="-4.74" y="12">v</tspan><tspan x=".98" y="12">alues</tspan></text></g></svg>
