<?xml version="1.0" encoding="UTF-8" standalone="no"?>
<svg xmlns="http://www.w3.org/2000/svg" id="e" viewBox="0 0 200.41 134.01"><style>text[font-family="'DejaVuSans'"] {font-family: 'DejaVu Sans', Ariel, Helvetica, sans-serif; font-style: normal; font-weight: normal;}
</style><defs><style>@import url("../../includes/shared/css/roboto.css");
.f{fill:#eaaa00;}.f,.g,.h,.i{stroke:#000;stroke-linecap:round;stroke-linejoin:round;stroke-width:1.5px;}.j,.k,.l{font-family:Roboto-Medium, Roboto;font-weight:500;}.m{font-family:Roboto-Regular, Roboto;}.k{letter-spacing:-.02em;}.g{fill:#b5dbf5;}.n,.l{fill:#000;font-size:12px;}.h{fill:#b0eba9;}.i{fill:#e6e6e6;}</style></defs><rect class="f" height="52.87" width="40.29" x=".75" y="27.51"/><rect class="i" height="105.74" width="118.85" x="80.81" y="27.51"/><rect class="h" height="26.44" width="40.29" x="41.04" y="27.51"/><rect class="g" height="26.76" width="58.91" x="81.32" y=".75"/><rect class="g" height="26.76" width="58.91" x="140.23" y=".75"/><rect class="h" height="26.44" width="40.29" x="41.04" y="53.95"/><rect class="h" height="26.44" width="40.29" x="41.04" y="80.38"/><rect class="h" height="26.44" width="40.29" x="41.04" y="106.82"/><rect class="f" height="52.87" width="40.29" x=".75" y="80.38"/><text class="n" transform="translate(103.74 83.89)"><tspan class="m" x="0" y="0">Mean of </tspan><tspan class="k" x="46.93" y="0">V</tspan><tspan class="j" x="54.43" y="0">arD</tspan></text><text class="l" transform="translate(103.37 17.64)"><tspan x="0" y="0">A1</tspan></text><text class="l" transform="translate(53.85 44.24)"><tspan x="0" y="0">C1</tspan></text><text class="l" transform="translate(53.85 70.67)"><tspan x="0" y="0">C2</tspan></text><text class="l" transform="translate(53.85 97.11)"><tspan x="0" y="0">C1</tspan></text><text class="l" transform="translate(53.85 123.54)"><tspan x="0" y="0">C2</tspan></text><text class="l" transform="translate(13.7 57.45)"><tspan x="0" y="0">B1</tspan></text><text class="l" transform="translate(13.7 110.33)"><tspan x="0" y="0">B2</tspan></text><text class="l" transform="translate(162.28 17.64)"><tspan x="0" y="0">A2</tspan></text></svg>
