<?xml version="1.0" encoding="UTF-8" standalone="no"?>
<svg xmlns="http://www.w3.org/2000/svg" id="e" viewBox="0 0 165.23 102.77"><style>text[font-family="'DejaVuSans'"] {font-family: 'DejaVu Sans', Ariel, Helvetica, sans-serif; font-style: normal; font-weight: normal;}
</style><defs><style>@import url("../../includes/shared/css/roboto.css");
.f{fill:#eaaa00;}.f,.g,.h,.i{stroke:#000;stroke-linecap:round;stroke-linejoin:round;stroke-width:1.5px;}.j,.k,.l{font-family:Roboto-Medium, Roboto;font-weight:500;}.m{font-family:Roboto-Regular, Roboto;}.k{letter-spacing:-.02em;}.g{fill:#b5dbf5;}.n,.l{fill:#000;font-size:12px;}.h{fill:#b0eba9;}.i{fill:#e6e6e6;}</style></defs><rect class="g" height="25.36" width="65.49" x="33.5" y=".75"/><rect class="i" height="50.27" width="130.98" x="33.5" y="51.75"/><rect class="f" height="25.36" width="32.75" x="33.5" y="26.11"/><rect class="h" height="25.36" width="32.75" x=".75" y="51.75"/><rect class="h" height="25.36" width="32.75" x=".75" y="76.66"/><rect class="f" height="25.36" width="32.75" x="66.24" y="26.11"/><rect class="f" height="25.36" width="32.75" x="98.99" y="26.11"/><rect class="f" height="25.36" width="32.75" x="131.73" y="26.11"/><rect class="g" height="25.36" width="65.49" x="98.99" y=".75"/><text class="n" transform="translate(65.78 80.39)"><tspan class="m" x="0" y="0">Sum of </tspan><tspan class="k" x="41.2" y="0">V</tspan><tspan class="j" x="48.7" y="0">arD</tspan></text><text class="l" transform="translate(58.84 16.94)"><tspan x="0" y="0">A1</tspan></text><text class="l" transform="translate(9.8 67.93)"><tspan x="0" y="0">C1</tspan></text><text class="l" transform="translate(9.8 92.84)"><tspan x="0" y="0">C2</tspan></text><text class="l" transform="translate(42.67 42.29)"><tspan x="0" y="0">B1</tspan></text><text class="l" transform="translate(108.16 42.29)"><tspan x="0" y="0">B1</tspan></text><text class="l" transform="translate(75.42 42.29)"><tspan x="0" y="0">B2</tspan></text><text class="l" transform="translate(140.91 42.29)"><tspan x="0" y="0">B2</tspan></text><text class="l" transform="translate(124.33 16.94)"><tspan x="0" y="0">A2</tspan></text></svg>
