<?xml version="1.0" encoding="UTF-8" standalone="no"?>
<svg xmlns="http://www.w3.org/2000/svg" viewBox="0 0 452 192.4"><style>text[font-family="'DejaVuSans'"] {font-family: 'DejaVu Sans', Ariel, Helvetica, sans-serif; font-style: normal; font-weight: normal;}
</style><defs><style>@import url("../../includes/shared/css/roboto.css");
.cls-1{fill:#b6dab2;}.cls-1,.cls-2,.cls-3,.cls-4,.cls-5{stroke:#000;stroke-linecap:round;stroke-linejoin:round;stroke-width:1.5px;}.cls-6{stroke:#2f7eb2;stroke-miterlimit:10;stroke-width:8px;}.cls-6,.cls-5{fill:none;}.cls-2{fill:#ebc392;}.cls-7{font-family:Roboto-Medium, Roboto;font-weight:500;}.cls-7,.cls-8{font-size:12px;}.cls-3{fill:#c6c6c6;}.cls-4{fill:#c1d8e8;}.cls-9{fill:#2f7eb2;}.cls-10{letter-spacing:-.01em;}.cls-8{font-family:Roboto-Bold, Roboto;font-weight:700;}</style></defs><g id="top"><line class="cls-6" x1="260.48" x2="150.97" y1="96.2" y2="96.2"/><polygon class="cls-9" points="258.85 108.35 258.85 84.05 270.99 96.2 258.85 108.35"/></g><g id="text"><rect class="cls-5" height="27.27" width="113.45" x="281.56" y=".75"/><rect class="cls-5" height="27.27" width="56.24" x="395.01" y=".75"/><rect class="cls-3" height="27.27" width="113.45" x="281.56" y="28.02"/><rect class="cls-3" height="27.27" width="113.45" x="281.56" y="55.29"/><rect class="cls-3" height="27.27" width="113.45" x="281.56" y="82.56"/><rect class="cls-3" height="27.27" width="113.45" x="281.56" y="109.84"/><rect class="cls-3" height="27.27" width="113.45" x="281.56" y="137.11"/><rect class="cls-3" height="27.27" width="113.45" x="281.56" y="164.38"/><rect class="cls-4" height="27.27" width="56.24" x="395.01" y="28.02"/><rect class="cls-2" height="27.27" width="56.24" x="395.01" y="55.29"/><rect class="cls-1" height="27.27" width="56.24" x="395.01" y="82.56"/><rect class="cls-4" height="27.27" width="56.24" x="395.01" y="109.84"/><rect class="cls-2" height="27.27" width="56.24" x="395.01" y="137.11"/><rect class="cls-1" height="27.27" width="56.24" x="395.01" y="164.38"/><text class="cls-7" transform="translate(334.29 45.16)"><tspan x="0" y="0">A</tspan></text><text class="cls-7" transform="translate(334.5 72.43)"><tspan x="0" y="0">B</tspan></text><text class="cls-7" transform="translate(334.37 99.71)"><tspan x="0" y="0">C</tspan></text><text class="cls-7" transform="translate(334.29 126.98)"><tspan x="0" y="0">A</tspan></text><text class="cls-7" transform="translate(334.5 154.25)"><tspan x="0" y="0">B</tspan></text><text class="cls-7" transform="translate(334.37 181.52)"><tspan x="0" y="0">C</tspan></text><text class="cls-7" transform="translate(404.23 45.16)"><tspan x="0" y="0">10</tspan></text><text class="cls-7" transform="translate(404.23 72.43)"><tspan x="0" y="0">400</tspan></text><text class="cls-7" transform="translate(404.23 99.71)"><tspan x="0" y="0">3400</tspan></text><text class="cls-7" transform="translate(404.23 126.98)"><tspan x="0" y="0">20</tspan></text><text class="cls-7" transform="translate(404.23 154.25)"><tspan x="0" y="0">800</tspan></text><text class="cls-7" transform="translate(404.23 181.52)"><tspan x="0" y="0">5600</tspan></text><text class="cls-8" transform="translate(294.52 17.89)"><tspan x="0" y="0">A_B_C_Indica</tspan><tspan class="cls-10" x="72.5" y="0">t</tspan><tspan x="76.38" y="0">or</tspan></text><text class="cls-8" transform="translate(405.98 17.89)"><tspan x="0" y="0">A_B_C</tspan></text><rect class="cls-5" height="27.27" width="46.45" x=".75" y="55.29"/><rect class="cls-5" height="27.27" width="46.45" x="47.2" y="55.29"/><rect class="cls-5" height="27.27" width="46.45" x="93.64" y="55.29"/><rect class="cls-4" height="27.27" width="46.45" x=".75" y="82.56"/><rect class="cls-2" height="27.27" width="46.45" x="47.2" y="82.56"/><rect class="cls-1" height="27.27" width="46.45" x="93.64" y="82.56"/><rect class="cls-4" height="27.27" width="46.45" x=".75" y="109.84"/><rect class="cls-2" height="27.27" width="46.45" x="47.2" y="109.84"/><rect class="cls-1" height="27.27" width="46.45" x="93.64" y="109.84"/><text class="cls-7" transform="translate(10.86 99.71)"><tspan x="0" y="0">10</tspan></text><text class="cls-7" transform="translate(56.19 99.71)"><tspan x="0" y="0">400</tspan></text><text class="cls-7" transform="translate(103.22 99.71)"><tspan x="0" y="0">3400</tspan></text><text class="cls-7" transform="translate(11.85 126.98)"><tspan x="0" y="0">20</tspan></text><text class="cls-7" transform="translate(56.19 126.98)"><tspan x="0" y="0">800</tspan></text><text class="cls-7" transform="translate(103.22 126.98)"><tspan x="0" y="0">5600</tspan></text><text class="cls-8" transform="translate(19.94 72.44)"><tspan x="0" y="0">A</tspan></text><text class="cls-8" transform="translate(66.59 72.44)"><tspan x="0" y="0">B</tspan></text><text class="cls-8" transform="translate(112.94 72.44)"><tspan x="0" y="0">C</tspan></text></g></svg>
