<?xml version="1.0" encoding="UTF-8" standalone="no"?>
<svg xmlns="http://www.w3.org/2000/svg" id="e" viewBox="0 0 263.71 266.7"><style>text[font-family="'DejaVuSans'"] {font-family: 'DejaVu Sans', Ariel, Helvetica, sans-serif; font-style: normal; font-weight: normal;}
</style><defs><style>@import url("../../includes/shared/css/roboto.css");
.g{letter-spacing:-.01em;}.h{stroke-dasharray:0 0 0 0 0 0 2.98 2.98;}.h,.i,.j,.k,.l,.m{fill:none;}.h,.k,.l{stroke:#004b87;stroke-linejoin:round;}.n,.o{fill:#000;}.n,.p{stroke-width:0px;}.o{font-family:Roboto-Regular, Roboto;font-size:14px;}.o,.q,.p{isolation:isolate;}.i{stroke:#000;}.j{stroke:#6f6f6f;}.l{stroke-dasharray:0 0 0 0 0 0 3 3;}.r{letter-spacing:0em;}.p{fill:#c1d8e8;opacity:.9;}.m{stroke:#2f7eb2;stroke-width:4px;}</style></defs><line class="j" x1="22.73" x2="240.54" y1="133.35" y2="133.35"/><line class="j" x1="131.63" x2="131.63" y1="242.25" y2="24.45"/><polygon class="p" points="187.26 .19 131.85 133.35 .2 192.26 76.44 266.51 131.85 133.35 263.5 74.44 187.26 .19"/><rect class="p" height="43.15" transform="translate(-55.66 134.77) rotate(-45.76)" width="268.11" x="-2.21" y="111.76"/><line class="k" x1="53.78" x2="54.82" y1="244.44" y2="243.36"/><line class="h" x1="56.9" x2="238.75" y1="241.23" y2="54.51"/><line class="k" x1="239.79" x2="240.84" y1="53.44" y2="52.37"/><line class="k" x1="22.86" x2="23.91" y1="214.33" y2="213.26"/><line class="h" x1="25.99" x2="207.84" y1="211.12" y2="24.4"/><line class="k" x1="208.88" x2="209.92" y1="23.34" y2="22.26"/><line class="k" x1=".2" x2="1.57" y1="192.26" y2="191.65"/><polyline class="l" points="4.31 190.42 131.85 133.35 186.11 2.96"/><line class="k" x1="186.69" x2="187.26" y1="1.58" y2=".19"/><line class="k" x1="76.44" x2="77.01" y1="266.51" y2="265.12"/><polyline class="l" points="78.17 262.35 131.85 133.35 260.76 75.66"/><line class="k" x1="262.13" x2="263.5" y1="75.05" y2="74.44"/><line class="m" x1="38.32" x2="225.38" y1="229.38" y2="37.32"/><line class="i" x1="156.89" x2="140.94" y1="159.79" y2="144.26"/><path class="n" d="M143.15,142.21c-1.19-1.16-3.09-1.13-4.25.06-1.16,1.19-1.13,3.09.06,4.25s3.09,1.13,4.25-.06,1.13-3.09-.06-4.25Z"/><line class="i" x1="241.33" x2="231.11" y1="22.7" y2="32.92"/><polygon class="n" points="229.11 29.28 227.05 36.98 234.75 34.92 229.11 29.28"/><g class="q"><text class="o" id="f" transform="translate(158.94 165.85)"><tspan x="0" y="0">Region of</tspan><tspan x="0" y="13">app</tspan><tspan class="r" x="23.32" y="13">r</tspan><tspan class="g" x="27.92" y="13">o</tspan><tspan x="35.77" y="13">ximate</tspan><tspan x="0" y="26">equality</tspan></text></g><g class="q"><text class="o" transform="translate(227.26 22.13)"><tspan x="0" y="0">A = B</tspan></text></g></svg>
