<?xml version="1.0" encoding="UTF-8" standalone="no"?>
<svg xmlns="http://www.w3.org/2000/svg" viewBox="0 0 322.9 265.23"><style>text[font-family="'DejaVuSans'"] {font-family: 'DejaVu Sans', Ariel, Helvetica, sans-serif; font-style: normal; font-weight: normal;}
</style><defs><style>@import url("../../includes/shared/css/roboto.css");
.f{letter-spacing:-.01em;}.g{font-family:Roboto-Regular, Roboto;font-size:14px;}.g,.h{fill:#000;}.i{stroke:#2f7eb2;stroke-width:4px;}.i,.j,.k,.l,.m{fill:none;}.h,.n{stroke-width:0px;}.j{stroke:#6f6f6f;}.k{stroke:#000;}.l{stroke-dasharray:0 0 3 3;}.l,.m{stroke:#004b87;stroke-linejoin:round;}.n{fill:#c1d8e8;opacity:.9;}.o{letter-spacing:0em;}</style></defs><g id="b"><line class="j" x1="23.49" x2="241.3" y1="132.61" y2="132.61"/><line class="j" x1="132.4" x2="132.4" y1="241.52" y2="23.71"/><polygon class="n" points="189.78 .2 132.61 132.61 .2 189.78 75.44 265.03 132.61 132.61 265.03 75.44 189.78 .2"/><line class="i" x1="37.82" x2="227.4" y1="227.4" y2="37.82"/><line class="m" x1=".2" x2="1.58" y1="189.78" y2="189.19"/><polyline class="l" points="4.33 187.99 132.61 132.61 188.59 2.95"/><line class="m" x1="189.19" x2="189.78" y1="1.58" y2=".2"/><line class="m" x1="75.44" x2="76.04" y1="265.03" y2="263.65"/><polyline class="l" points="77.23 260.89 132.61 132.61 262.27 76.63"/><line class="m" x1="263.65" x2="265.03" y1="76.04" y2="75.44"/></g><g id="d"><line class="k" x1="244.53" x2="216.73" y1="94.99" y2="77"/><path class="h" d="M218.49,74.55c-1.39-.9-3.26-.5-4.16.89-.9,1.39-.5,3.26.89,4.16,1.39.9,3.26.5,4.16-.89.9-1.39.5-3.26-.89-4.16Z"/><line class="k" x1="242.09" x2="231.87" y1="21.63" y2="31.85"/><polygon class="h" points="229.87 28.2 227.81 35.91 235.51 33.84 229.87 28.2"/></g><g id="e"><text class="g" transform="translate(244.92 101.3)"><tspan x="0" y="0">Region of</tspan><tspan x="0" y="13">app</tspan><tspan class="o" x="23.32" y="13">r</tspan><tspan class="f" x="27.92" y="13">o</tspan><tspan x="35.77" y="13">ximate</tspan><tspan x="0" y="26">equality</tspan></text><text class="g" transform="translate(228.02 21.05)"><tspan x="0" y="0">A = B</tspan></text></g></svg>
