<?xml version="1.0" encoding="UTF-8" standalone="no"?>
<svg xmlns="http://www.w3.org/2000/svg" viewBox="0 0 293.29 232.43"><style>text[font-family="'DejaVuSans'"] {font-family: 'DejaVu Sans', Ariel, Helvetica, sans-serif; font-style: normal; font-weight: normal;}
</style><defs><style>@import url("../../includes/shared/css/roboto.css");
.f{stroke-dasharray:0 0 2.98 2.98;}.f,.g,.h,.i,.j{fill:none;}.f,.j{stroke:#004b87;stroke-linejoin:round;}.k{letter-spacing:-.01em;}.l{font-family:Roboto-Regular, Roboto;font-size:14px;}.l,.m{fill:#000;}.g{stroke:#2f7eb2;stroke-width:4px;}.m,.n{stroke-width:0px;}.h{stroke:#6f6f6f;}.i{stroke:#000;}.n{fill:#c1d8e8;opacity:.9;}.o{letter-spacing:0em;}</style></defs><g id="b"><line class="h" x1="1.28" x2="219.09" y1="122.03" y2="122.03"/><line class="h" x1="110.19" x2="110.19" y1="230.93" y2="13.12"/><rect class="n" height="43.15" transform="translate(-53.95 113.81) rotate(-45)" width="268.11" x="-23.65" y="100.45"/><line class="g" x1="15.61" x2="205.19" y1="216.82" y2="27.23"/><line class="j" x1="30.87" x2="31.93" y1="232.07" y2="231.01"/><line class="f" x1="34.04" x2="218.34" y1="228.91" y2="44.61"/><line class="j" x1="219.39" x2="220.45" y1="43.55" y2="42.49"/><line class="j" x1=".35" x2="1.41" y1="201.56" y2="200.5"/><line class="f" x1="3.52" x2="187.82" y1="198.39" y2="14.09"/><line class="j" x1="188.88" x2="189.94" y1="13.04" y2="11.98"/></g><g id="d"><line class="i" x1="214.32" x2="178.41" y1="73.08" y2="73.08"/><circle class="m" cx="178.56" cy="73.08" r="3.01"/><line class="i" x1="219.88" x2="209.66" y1="12.55" y2="22.77"/><polygon class="m" points="207.66 19.12 205.6 26.83 213.3 24.76 207.66 19.12"/></g><g id="e"><text class="l" transform="translate(215.32 76.48)"><tspan x="0" y="0">Region of</tspan><tspan x="0" y="13">app</tspan><tspan class="o" x="23.32" y="13">r</tspan><tspan class="k" x="27.92" y="13">o</tspan><tspan x="35.77" y="13">ximate</tspan><tspan x="0" y="26">equality</tspan></text><text class="l" transform="translate(205.81 11.98)"><tspan x="0" y="0">A = B</tspan></text></g></svg>
