<?xml version="1.0" encoding="UTF-8" standalone="no"?>
<svg xmlns="http://www.w3.org/2000/svg" viewBox="0 0 452 192.4"><style>text[font-family="'DejaVuSans'"] {font-family: 'DejaVu Sans', Ariel, Helvetica, sans-serif; font-style: normal; font-weight: normal;}
</style><defs><style>@import url("../../includes/shared/css/roboto.css");
.cls-1{fill:#b6dab2;}.cls-1,.cls-2,.cls-3,.cls-4,.cls-5{stroke:#000;stroke-linecap:round;stroke-linejoin:round;stroke-width:1.5px;}.cls-6{stroke:#2f7eb2;stroke-miterlimit:10;stroke-width:8px;}.cls-6,.cls-5{fill:none;}.cls-2{fill:#ebc392;}.cls-7{font-family:Roboto-Medium, Roboto;font-weight:500;}.cls-7,.cls-8{font-size:12px;}.cls-3{fill:#c6c6c6;}.cls-4{fill:#c1d8e8;}.cls-9{fill:#2f7eb2;}.cls-10{letter-spacing:-.01em;}.cls-8{font-family:Roboto-Bold, Roboto;font-weight:700;}</style></defs><g id="top"><line class="cls-6" x1="290.82" x2="181.31" y1="96.2" y2="96.2"/><polygon class="cls-9" points="289.19 108.35 289.19 84.05 301.34 96.2 289.19 108.35"/></g><g id="text"><rect class="cls-5" height="27.27" width="113.45" x=".75" y=".75"/><rect class="cls-5" height="27.27" width="56.24" x="114.2" y=".75"/><rect class="cls-3" height="27.27" width="113.45" x=".75" y="28.02"/><rect class="cls-3" height="27.27" width="113.45" x=".75" y="55.29"/><rect class="cls-3" height="27.27" width="113.45" x=".75" y="82.56"/><rect class="cls-3" height="27.27" width="113.45" x=".75" y="109.84"/><rect class="cls-3" height="27.27" width="113.45" x=".75" y="137.11"/><rect class="cls-3" height="27.27" width="113.45" x=".75" y="164.38"/><rect class="cls-4" height="27.27" width="56.24" x="114.2" y="28.02"/><rect class="cls-2" height="27.27" width="56.24" x="114.2" y="55.29"/><rect class="cls-1" height="27.27" width="56.24" x="114.2" y="82.56"/><rect class="cls-4" height="27.27" width="56.24" x="114.2" y="109.84"/><rect class="cls-2" height="27.27" width="56.24" x="114.2" y="137.11"/><rect class="cls-1" height="27.27" width="56.24" x="114.2" y="164.38"/><text class="cls-7" transform="translate(53.48 45.16)"><tspan x="0" y="0">A</tspan></text><text class="cls-7" transform="translate(53.69 72.43)"><tspan x="0" y="0">B</tspan></text><text class="cls-7" transform="translate(53.56 99.71)"><tspan x="0" y="0">C</tspan></text><text class="cls-7" transform="translate(53.48 126.98)"><tspan x="0" y="0">A</tspan></text><text class="cls-7" transform="translate(53.69 154.25)"><tspan x="0" y="0">B</tspan></text><text class="cls-7" transform="translate(53.56 181.52)"><tspan x="0" y="0">C</tspan></text><text class="cls-7" transform="translate(123.41 45.16)"><tspan x="0" y="0">10</tspan></text><text class="cls-7" transform="translate(123.41 72.43)"><tspan x="0" y="0">400</tspan></text><text class="cls-7" transform="translate(123.41 99.71)"><tspan x="0" y="0">3400</tspan></text><text class="cls-7" transform="translate(123.41 126.98)"><tspan x="0" y="0">20</tspan></text><text class="cls-7" transform="translate(123.41 154.25)"><tspan x="0" y="0">800</tspan></text><text class="cls-7" transform="translate(123.41 181.52)"><tspan x="0" y="0">5600</tspan></text><text class="cls-8" transform="translate(33.53 17.89)"><tspan x="0" y="0">Indica</tspan><tspan class="cls-10" x="32.85" y="0">t</tspan><tspan x="36.73" y="0">or</tspan></text><text class="cls-8" transform="translate(129.95 17.89)"><tspan x="0" y="0">Data</tspan></text><rect class="cls-5" height="27.27" width="46.45" x="311.91" y="68.93"/><rect class="cls-5" height="27.27" width="46.45" x="358.36" y="68.93"/><rect class="cls-5" height="27.27" width="46.45" x="404.8" y="68.93"/><rect class="cls-4" height="27.27" width="46.45" x="311.91" y="96.2"/><rect class="cls-2" height="27.27" width="46.45" x="358.36" y="96.2"/><rect class="cls-1" height="27.27" width="46.45" x="404.8" y="96.2"/><text class="cls-7" transform="translate(322.02 113.34)"><tspan x="0" y="0">30</tspan></text><text class="cls-7" transform="translate(367.35 113.34)"><tspan x="0" y="0">1200</tspan></text><text class="cls-7" transform="translate(414.38 113.34)"><tspan x="0" y="0">9000</tspan></text><text class="cls-8" transform="translate(331.1 86.07)"><tspan x="0" y="0">A</tspan></text><text class="cls-8" transform="translate(377.75 86.07)"><tspan x="0" y="0">B</tspan></text><text class="cls-8" transform="translate(424.1 86.07)"><tspan x="0" y="0">C</tspan></text></g></svg>
