<?xml version="1.0" encoding="UTF-8" standalone="no"?>
<svg xmlns="http://www.w3.org/2000/svg" viewBox="0 0 551.46 192.4"><style>text[font-family="'DejaVuSans'"] {font-family: 'DejaVu Sans', Ariel, Helvetica, sans-serif; font-style: normal; font-weight: normal;}
</style><defs><style>@import url("../../includes/shared/css/roboto.css");
.cls-1{fill:#b6dab2;}.cls-1,.cls-2,.cls-3,.cls-4,.cls-5{stroke:#000;stroke-linecap:round;stroke-linejoin:round;stroke-width:1.5px;}.cls-6{stroke:#2f7eb2;stroke-miterlimit:10;stroke-width:8px;}.cls-6,.cls-5{fill:none;}.cls-2{fill:#ebc392;}.cls-7{font-family:Roboto-Medium, Roboto;font-weight:500;}.cls-7,.cls-8{font-size:12px;}.cls-3{fill:#c6c6c6;}.cls-4{fill:#c1d8e8;}.cls-9{fill:#2f7eb2;}.cls-10{letter-spacing:-.02em;}.cls-11{letter-spacing:-.01em;}.cls-8{font-family:Roboto-Bold, Roboto;font-weight:700;}</style></defs><g id="top"><line class="cls-6" x1="318.84" x2="209.33" y1="96.2" y2="96.2"/><polygon class="cls-9" points="317.21 108.35 317.21 84.05 329.35 96.2 317.21 108.35"/></g><g id="text"><rect class="cls-5" height="27.27" width="71.45" x="339.92" y="55.29"/><rect class="cls-5" height="27.27" width="46.45" x="411.38" y="55.29"/><rect class="cls-5" height="27.27" width="46.45" x="457.82" y="55.29"/><rect class="cls-5" height="27.27" width="46.45" x="504.27" y="55.29"/><rect class="cls-5" height="27.27" width="71.45" x="339.92" y="82.56"/><rect class="cls-4" height="27.27" width="46.45" x="411.38" y="82.56"/><rect class="cls-2" height="27.27" width="46.45" x="457.82" y="82.56"/><rect class="cls-1" height="27.27" width="46.45" x="504.27" y="82.56"/><rect class="cls-5" height="27.27" width="71.45" x="339.92" y="109.84"/><rect class="cls-4" height="27.27" width="46.45" x="411.38" y="109.84"/><rect class="cls-2" height="27.27" width="46.45" x="457.82" y="109.84"/><rect class="cls-1" height="27.27" width="46.45" x="504.27" y="109.84"/><text class="cls-7" transform="translate(421.49 99.71)"><tspan x="0" y="0">10</tspan></text><text class="cls-7" transform="translate(466.81 99.71)"><tspan x="0" y="0">400</tspan></text><text class="cls-7" transform="translate(513.85 99.71)"><tspan x="0" y="0">3400</tspan></text><text class="cls-7" transform="translate(371.85 99.71)"><tspan x="0" y="0">X</tspan></text><text class="cls-7" transform="translate(371.99 126.98)"><tspan x="0" y="0">Y</tspan></text><text class="cls-7" transform="translate(422.47 126.98)"><tspan x="0" y="0">20</tspan></text><text class="cls-7" transform="translate(466.81 126.98)"><tspan x="0" y="0">800</tspan></text><text class="cls-7" transform="translate(513.85 126.98)"><tspan x="0" y="0">5600</tspan></text><text class="cls-8" transform="translate(350.98 72.44)"><tspan x="0" y="0">G</tspan><tspan class="cls-10" x="8.17" y="0">r</tspan><tspan x="12.34" y="0">ouping</tspan></text><text class="cls-8" transform="translate(430.56 72.44)"><tspan x="0" y="0">A</tspan></text><text class="cls-8" transform="translate(477.21 72.44)"><tspan x="0" y="0">B</tspan></text><text class="cls-8" transform="translate(523.56 72.44)"><tspan x="0" y="0">C</tspan></text><rect class="cls-5" height="27.27" width="71.26" x=".75" y=".75"/><rect class="cls-5" height="27.27" width="75.28" x="72.01" y=".75"/><rect class="cls-5" height="27.27" width="51.15" x="147.3" y=".75"/><rect class="cls-3" height="27.27" width="71.26" x=".75" y="28.02"/><rect class="cls-5" height="27.27" width="75.28" x="72.01" y="28.02"/><rect class="cls-4" height="27.27" width="51.15" x="147.3" y="28.02"/><rect class="cls-3" height="27.27" width="71.26" x=".75" y="55.29"/><rect class="cls-5" height="27.27" width="75.28" x="72.01" y="55.29"/><rect class="cls-2" height="27.27" width="51.15" x="147.3" y="55.29"/><rect class="cls-3" height="27.27" width="71.26" x=".75" y="82.56"/><rect class="cls-5" height="27.27" width="75.28" x="72.01" y="82.56"/><rect class="cls-1" height="27.27" width="51.15" x="147.3" y="82.56"/><rect class="cls-3" height="27.27" width="71.26" x=".75" y="109.84"/><rect class="cls-5" height="27.27" width="75.28" x="72.01" y="109.84"/><rect class="cls-4" height="27.27" width="51.15" x="147.3" y="109.84"/><rect class="cls-3" height="27.27" width="71.26" x=".75" y="137.11"/><rect class="cls-5" height="27.27" width="75.28" x="72.01" y="137.11"/><rect class="cls-2" height="27.27" width="51.15" x="147.3" y="137.11"/><rect class="cls-3" height="27.27" width="71.26" x=".75" y="164.38"/><rect class="cls-5" height="27.27" width="75.28" x="72.01" y="164.38"/><rect class="cls-1" height="27.27" width="51.15" x="147.3" y="164.38"/><text class="cls-7" transform="translate(32.39 45.16)"><tspan x="0" y="0">A</tspan></text><text class="cls-7" transform="translate(105.86 45.16)"><tspan x="0" y="0">X</tspan></text><text class="cls-7" transform="translate(156.51 45.16)"><tspan x="0" y="0">10</tspan></text><text class="cls-7" transform="translate(32.6 72.43)"><tspan x="0" y="0">B</tspan></text><text class="cls-7" transform="translate(105.86 72.43)"><tspan x="0" y="0">X</tspan></text><text class="cls-7" transform="translate(156.51 72.43)"><tspan x="0" y="0">400</tspan></text><text class="cls-7" transform="translate(32.46 99.71)"><tspan x="0" y="0">C</tspan></text><text class="cls-7" transform="translate(105.86 99.71)"><tspan x="0" y="0">X</tspan></text><text class="cls-7" transform="translate(156.51 99.71)"><tspan x="0" y="0">3400</tspan></text><text class="cls-7" transform="translate(32.39 126.98)"><tspan x="0" y="0">A</tspan></text><text class="cls-7" transform="translate(106 126.98)"><tspan x="0" y="0">Y</tspan></text><text class="cls-7" transform="translate(156.51 126.98)"><tspan x="0" y="0">20</tspan></text><text class="cls-7" transform="translate(32.6 154.25)"><tspan x="0" y="0">B</tspan></text><text class="cls-7" transform="translate(106 154.25)"><tspan x="0" y="0">Y</tspan></text><text class="cls-7" transform="translate(156.51 154.25)"><tspan x="0" y="0">800</tspan></text><text class="cls-7" transform="translate(32.46 181.52)"><tspan x="0" y="0">C</tspan></text><text class="cls-7" transform="translate(106 181.52)"><tspan x="0" y="0">Y</tspan></text><text class="cls-7" transform="translate(156.51 181.52)"><tspan x="0" y="0">5600</tspan></text><text class="cls-8" transform="translate(12.43 17.89)"><tspan x="0" y="0">Indica</tspan><tspan class="cls-11" x="32.85" y="0">t</tspan><tspan x="36.73" y="0">or</tspan></text><text class="cls-8" transform="translate(84.98 17.89)"><tspan x="0" y="0">G</tspan><tspan class="cls-10" x="8.17" y="0">r</tspan><tspan x="12.34" y="0">ouping</tspan></text><text class="cls-8" transform="translate(160.51 17.89)"><tspan x="0" y="0">Data</tspan></text></g></svg>
